<svg xmlns="http://www.w3.org/2000/svg" xmlns:xlink="http://www.w3.org/1999/xlink" width="108.0" height="104.0" viewBox="-54.0 -52.0 108.0 104.0" preserveAspectRatio="xMinYMin meet"><g transform="matrix(1,0,0,-1,0,0.0)"><path fill-rule="evenodd" fill="#66cc99" stroke="#555555" stroke-width="2.0" opacity="0.6" d="M -13.3237943160453,-39.9422167200664 L -14.5,-40.0 L -50.0,-40.0 L -50.0,-48.0 L 50.0,-48.0 L 50.0,-40.0 L 14.5,-40.0 L 13.3237943160453,-39.9422167200664 L 12.1589161358065,-39.7694233648388 L 11.0165838729465,-39.4832840287865 L 9.9077988116189,-39.086554390135404 L 8.843239158088,-38.5830551721803 L 7.8331572037648005,-37.9776353476305 L 6.8872805900363,-37.2761254403528 L 6.0147186257614,-36.4852813742386 L 5.2238745596472,-35.6127194099637 L 4.5223646523695,-34.6668427962352 L 3.9169448278197003,-33.656760841912 L 3.4134456098646,-32.592201188381104 L 3.0167159712135,-31.483416127053502 L 2.7305766351612,-30.3410838641935 L 2.5577832799336,-29.176205683954702 L 2.5,-28.0 L 2.5,28.0 L 2.5577832799336,29.176205683954702 L 2.7305766351612,30.3410838641935 L 3.0167159712135,31.483416127053502 L 3.4134456098646,32.592201188381104 L 3.9169448278197003,33.656760841912 L 4.5223646523695,34.6668427962352 L 5.2238745596472,35.6127194099637 L 6.0147186257614,36.4852813742386 L 6.8872805900363,37.2761254403528 L 7.8331572037648005,37.9776353476305 L 8.843239158088,38.5830551721803 L 9.9077988116189,39.086554390135404 L 11.0165838729465,39.4832840287865 L 12.1589161358065,39.7694233648388 L 13.3237943160453,39.9422167200664 L 14.5,40.0 L 50.0,40.0 L 50.0,48.0 L -50.0,48.0 L -50.0,40.0 L -14.5,40.0 L -13.3237943160453,39.9422167200664 L -12.1589161358065,39.7694233648388 L -11.0165838729465,39.4832840287865 L -9.9077988116189,39.086554390135404 L -8.843239158088,38.5830551721803 L -7.8331572037648005,37.9776353476305 L -6.8872805900363,37.2761254403528 L -6.0147186257614,36.4852813742386 L -5.2238745596472,35.6127194099637 L -4.5223646523695,34.6668427962352 L -3.9169448278197003,33.656760841912 L -3.4134456098646,32.592201188381104 L -3.0167159712135,31.483416127053502 L -2.7305766351612,30.3410838641935 L -2.5577832799336,29.176205683954702 L -2.5,28.0 L -2.5,-28.0 L -2.5577832799336,-29.176205683954702 L -2.7305766351612,-30.3410838641935 L -3.0167159712135,-31.483416127053502 L -3.4134456098646,-32.592201188381104 L -3.9169448278197003,-33.656760841912 L -4.5223646523695,-34.6668427962352 L -5.2238745596472,-35.6127194099637 L -6.0147186257614,-36.4852813742386 L -6.8872805900363,-37.2761254403528 L -7.8331572037648005,-37.9776353476305 L -8.843239158088,-38.5830551721803 L -9.9077988116189,-39.086554390135404 L -11.0165838729465,-39.4832840287865 L -12.1589161358065,-39.7694233648388 L -13.3237943160453,-39.9422167200664 z" /></g></svg>