<svg xmlns="http://www.w3.org/2000/svg" xmlns:xlink="http://www.w3.org/1999/xlink" width="300" height="300" viewBox="-540.0 -40.0 1080.0 880.0" preserveAspectRatio="xMinYMin meet"><g transform="matrix(1,0,0,-1,0,800.0)"><g><path fill-rule="evenodd" fill="#ff3333" stroke="#555555" stroke-width="7.2" opacity="0.6" d="M -125.0,0.0 L 125.0,0.0 L 125.0,650.0 L -125.0,650.0 L -125.0,0.0 z" /><path fill-rule="evenodd" fill="#ff3333" stroke="#555555" stroke-width="7.2" opacity="0.6" d="M -500.0,650.0 L 500.0,650.0 L 500.0,800.0 L -500.0,800.0 L -500.0,650.0 z" /><path fill-rule="evenodd" fill="#ff3333" stroke="#555555" stroke-width="7.2" opacity="0.6" d="M -55.0,60.0 L -55.04815273327803,59.01982859670439 L -55.19214719596769,58.04909677983872 L -55.43059664267791,57.09715322745538 L -55.76120467488713,56.1731656763491 L -56.18078735651645,55.28603263174002 L -56.685303876974544,54.44429766980398 L -57.26989546637263,53.65606715836354 L -57.928932188134524,52.928932188134524 L -58.65606715836354,52.26989546637263 L -59.44429766980398,51.685303876974544 L -60.28603263174002,51.18078735651645 L -61.1731656763491,50.76120467488713 L -62.09715322745538,50.43059664267791 L -63.04909677983872,50.19214719596769 L -64.01982859670439,50.04815273327803 L -65.0,50.0 L -65.9801714032956,50.04815273327803 L -66.95090322016128,50.19214719596769 L -67.90284677254462,50.43059664267791 L -68.8268343236509,50.76120467488713 L -69.71396736825997,51.18078735651645 L -70.55570233019603,51.685303876974544 L -71.34393284163646,52.26989546637263 L -72.07106781186548,52.928932188134524 L -72.73010453362737,53.65606715836354 L -73.31469612302546,54.44429766980398 L -73.81921264348355,55.28603263174002 L -74.23879532511287,56.1731656763491 L -74.56940335732209,57.09715322745538 L -74.80785280403231,58.04909677983871 L -74.95184726672197,59.01982859670439 L -75.0,60.0 L -74.95184726672197,60.98017140329561 L -74.80785280403231,61.95090322016129 L -74.56940335732209,62.90284677254462 L -74.23879532511287,63.8268343236509 L -73.81921264348355,64.71396736825997 L -73.31469612302546,65.55570233019603 L -72.73010453362737,66.34393284163646 L -72.07106781186548,67.07106781186548 L -71.34393284163646,67.73010453362737 L -70.55570233019603,68.31469612302546 L -69.71396736825997,68.81921264348355 L -68.8268343236509,69.23879532511286 L -67.90284677254462,69.56940335732209 L -66.95090322016128,69.80785280403231 L -65.9801714032956,69.95184726672197 L -65.0,70.0 L -64.0198285967044,69.95184726672197 L -63.04909677983872,69.80785280403231 L -62.09715322745538,69.56940335732209 L -61.1731656763491,69.23879532511286 L -60.28603263174003,68.81921264348355 L -59.44429766980398,68.31469612302546 L -58.65606715836354,67.73010453362737 L -57.928932188134524,67.07106781186548 L -57.26989546637263,66.34393284163646 L -56.685303876974544,65.55570233019603 L -56.180787356516454,64.71396736825997 L -55.76120467488714,63.82683432365091 L -55.43059664267791,62.90284677254463 L -55.1921471959677,61.95090322016129 L -55.04815273327803,60.98017140329561 L -55.0,60.0 z" /><path fill-rule="evenodd" fill="#ff3333" stroke="#555555" stroke-width="7.2" opacity="0.6" d="M 10.0,60.0 L 9.95184726672197,59.01982859670439 L 9.807852804032304,58.04909677983872 L 9.569403357322088,57.09715322745538 L 9.238795325112868,56.1731656763491 L 8.819212643483551,55.28603263174002 L 8.314696123025453,54.44429766980398 L 7.73010453362737,53.65606715836354 L 7.0710678118654755,52.928932188134524 L 6.343932841636455,52.26989546637263 L 5.555702330196023,51.685303876974544 L 4.713967368259978,51.18078735651645 L 3.8268343236508984,50.76120467488713 L 2.902846772544623,50.43059664267791 L 1.9509032201612833,50.19214719596769 L 0.9801714032956077,50.04815273327803 L 6.123233995736766e-16,50.0 L -0.9801714032956065,50.04815273327803 L -1.950903220161282,50.19214719596769 L -2.9028467725446214,50.43059664267791 L -3.826834323650897,50.76120467488713 L -4.713967368259977,51.18078735651645 L -5.55570233019602,51.685303876974544 L -6.3439328416364535,52.26989546637263 L -7.071067811865475,52.928932188134524 L -7.73010453362737,53.65606715836354 L -8.314696123025453,54.44429766980398 L -8.81921264348355,55.28603263174002 L -9.238795325112868,56.1731656763491 L -9.569403357322088,57.09715322745538 L -9.807852804032304,58.04909677983871 L -9.951847266721968,59.01982859670439 L -10.0,60.0 L -9.95184726672197,60.98017140329561 L -9.807852804032304,61.95090322016129 L -9.56940335732209,62.90284677254462 L -9.238795325112868,63.8268343236509 L -8.819212643483551,64.71396736825997 L -8.314696123025454,65.55570233019603 L -7.730104533627371,66.34393284163646 L -7.071067811865477,67.07106781186548 L -6.343932841636459,67.73010453362737 L -5.555702330196022,68.31469612302546 L -4.713967368259978,68.81921264348355 L -3.8268343236509033,69.23879532511286 L -2.9028467725446245,69.56940335732209 L -1.9509032201612866,69.80785280403231 L -0.9801714032956045,69.95184726672197 L -1.8369701987210296e-15,70.0 L 0.9801714032956009,69.95184726672197 L 1.950903220161283,69.80785280403231 L 2.9028467725446205,69.56940335732209 L 3.8268343236509,69.23879532511286 L 4.713967368259976,68.81921264348355 L 5.555702330196018,68.31469612302546 L 6.343932841636456,67.73010453362737 L 7.071067811865474,67.07106781186548 L 7.730104533627365,66.34393284163646 L 8.314696123025453,65.55570233019603 L 8.819212643483548,64.71396736825997 L 9.238795325112864,63.82683432365091 L 9.569403357322088,62.90284677254463 L 9.807852804032303,61.95090322016129 L 9.95184726672197,60.98017140329561 L 10.0,60.0 z" /><path fill-rule="evenodd" fill="#ff3333" stroke="#555555" stroke-width="7.2" opacity="0.6" d="M 75.0,60.0 L 74.95184726672197,59.01982859670439 L 74.80785280403231,58.04909677983872 L 74.56940335732209,57.09715322745538 L 74.23879532511287,56.1731656763491 L 73.81921264348355,55.28603263174002 L 73.31469612302546,54.44429766980398 L 72.73010453362737,53.65606715836354 L 72.07106781186548,52.928932188134524 L 71.34393284163646,52.26989546637263 L 70.55570233019603,51.685303876974544 L 69.71396736825997,51.18078735651645 L 68.8268343236509,50.76120467488713 L 67.90284677254462,50.43059664267791 L 66.95090322016128,50.19214719596769 L 65.98017140329561,50.04815273327803 L 65.0,50.0 L 64.0198285967044,50.04815273327803 L 63.04909677983872,50.19214719596769 L 62.09715322745538,50.43059664267791 L 61.1731656763491,50.76120467488713 L 60.28603263174002,51.18078735651645 L 59.44429766980398,51.685303876974544 L 58.65606715836355,52.26989546637263 L 57.928932188134524,52.928932188134524 L 57.26989546637263,53.65606715836354 L 56.685303876974544,54.44429766980398 L 56.18078735651645,55.28603263174002 L 55.76120467488713,56.1731656763491 L 55.43059664267791,57.09715322745538 L 55.19214719596769,58.04909677983871 L 55.04815273327803,59.01982859670439 L 55.0,60.0 L 55.04815273327803,60.98017140329561 L 55.19214719596769,61.95090322016129 L 55.43059664267791,62.90284677254462 L 55.76120467488713,63.8268343236509 L 56.18078735651645,64.71396736825997 L 56.685303876974544,65.55570233019603 L 57.26989546637263,66.34393284163646 L 57.928932188134524,67.07106781186548 L 58.65606715836354,67.73010453362737 L 59.44429766980398,68.31469612302546 L 60.28603263174002,68.81921264348355 L 61.1731656763491,69.23879532511286 L 62.09715322745537,69.56940335732209 L 63.04909677983871,69.80785280403231 L 64.0198285967044,69.95184726672197 L 65.0,70.0 L 65.9801714032956,69.95184726672197 L 66.95090322016128,69.80785280403231 L 67.90284677254462,69.56940335732209 L 68.8268343236509,69.23879532511286 L 69.71396736825997,68.81921264348355 L 70.55570233019601,68.31469612302546 L 71.34393284163646,67.73010453362737 L 72.07106781186548,67.07106781186548 L 72.73010453362737,66.34393284163646 L 73.31469612302546,65.55570233019603 L 73.81921264348355,64.71396736825997 L 74.23879532511286,63.82683432365091 L 74.56940335732209,62.90284677254463 L 74.80785280403231,61.95090322016129 L 74.95184726672197,60.98017140329561 L 75.0,60.0 z" /><path fill-rule="evenodd" fill="#ff3333" stroke="#555555" stroke-width="7.2" opacity="0.6" d="M -55.0,130.0 L -55.04815273327803,129.0198285967044 L -55.19214719596769,128.04909677983872 L -55.43059664267791,127.09715322745538 L -55.76120467488713,126.1731656763491 L -56.18078735651645,125.28603263174003 L -56.685303876974544,124.44429766980397 L -57.26989546637263,123.65606715836354 L -57.928932188134524,122.92893218813452 L -58.65606715836354,122.26989546637263 L -59.44429766980398,121.68530387697454 L -60.28603263174002,121.18078735651645 L -61.1731656763491,120.76120467488713 L -62.09715322745538,120.43059664267791 L -63.04909677983872,120.19214719596769 L -64.01982859670439,120.04815273327803 L -65.0,120.0 L -65.9801714032956,120.04815273327803 L -66.95090322016128,120.19214719596769 L -67.90284677254462,120.43059664267791 L -68.8268343236509,120.76120467488713 L -69.71396736825997,121.18078735651645 L -70.55570233019603,121.68530387697454 L -71.34393284163646,122.26989546637263 L -72.07106781186548,122.92893218813452 L -72.73010453362737,123.65606715836354 L -73.31469612302546,124.44429766980397 L -73.81921264348355,125.28603263174003 L -74.23879532511287,126.1731656763491 L -74.56940335732209,127.09715322745538 L -74.80785280403231,128.04909677983872 L -74.95184726672197,129.0198285967044 L -75.0,130.0 L -74.95184726672197,130.9801714032956 L -74.80785280403231,131.95090322016128 L -74.56940335732209,132.90284677254462 L -74.23879532511287,133.8268343236509 L -73.81921264348355,134.71396736825997 L -73.31469612302546,135.55570233019603 L -72.73010453362737,136.34393284163644 L -72.07106781186548,137.07106781186548 L -71.34393284163646,137.73010453362735 L -70.55570233019603,138.31469612302544 L -69.71396736825997,138.81921264348355 L -68.8268343236509,139.23879532511287 L -67.90284677254462,139.56940335732207 L -66.95090322016128,139.8078528040323 L -65.9801714032956,139.95184726672198 L -65.0,140.0 L -64.0198285967044,139.95184726672198 L -63.04909677983872,139.8078528040323 L -62.09715322745538,139.5694033573221 L -61.1731656763491,139.23879532511287 L -60.28603263174003,138.81921264348355 L -59.44429766980398,138.31469612302544 L -58.65606715836354,137.73010453362735 L -57.928932188134524,137.07106781186548 L -57.26989546637263,136.34393284163644 L -56.685303876974544,135.55570233019603 L -56.180787356516454,134.71396736825997 L -55.76120467488714,133.8268343236509 L -55.43059664267791,132.90284677254462 L -55.1921471959677,131.95090322016128 L -55.04815273327803,130.9801714032956 L -55.0,130.0 z" /><path fill-rule="evenodd" fill="#ff3333" stroke="#555555" stroke-width="7.2" opacity="0.6" d="M 10.0,130.0 L 9.95184726672197,129.0198285967044 L 9.807852804032304,128.04909677983872 L 9.569403357322088,127.09715322745538 L 9.238795325112868,126.1731656763491 L 8.819212643483551,125.28603263174003 L 8.314696123025453,124.44429766980397 L 7.73010453362737,123.65606715836354 L 7.0710678118654755,122.92893218813452 L 6.343932841636455,122.26989546637263 L 5.555702330196023,121.68530387697454 L 4.713967368259978,121.18078735651645 L 3.8268343236508984,120.76120467488713 L 2.902846772544623,120.43059664267791 L 1.9509032201612833,120.19214719596769 L 0.9801714032956077,120.04815273327803 L 6.123233995736766e-16,120.0 L -0.9801714032956065,120.04815273327803 L -1.950903220161282,120.19214719596769 L -2.9028467725446214,120.43059664267791 L -3.826834323650897,120.76120467488713 L -4.713967368259977,121.18078735651645 L -5.55570233019602,121.68530387697454 L -6.3439328416364535,122.26989546637263 L -7.071067811865475,122.92893218813452 L -7.73010453362737,123.65606715836354 L -8.314696123025453,124.44429766980397 L -8.81921264348355,125.28603263174003 L -9.238795325112868,126.1731656763491 L -9.569403357322088,127.09715322745538 L -9.807852804032304,128.04909677983872 L -9.951847266721968,129.0198285967044 L -10.0,130.0 L -9.95184726672197,130.9801714032956 L -9.807852804032304,131.95090322016128 L -9.56940335732209,132.90284677254462 L -9.238795325112868,133.8268343236509 L -8.819212643483551,134.71396736825997 L -8.314696123025454,135.55570233019603 L -7.730104533627371,136.34393284163644 L -7.071067811865477,137.07106781186548 L -6.343932841636459,137.73010453362735 L -5.555702330196022,138.31469612302544 L -4.713967368259978,138.81921264348355 L -3.8268343236509033,139.23879532511287 L -2.9028467725446245,139.56940335732207 L -1.9509032201612866,139.8078528040323 L -0.9801714032956045,139.95184726672198 L -1.8369701987210296e-15,140.0 L 0.9801714032956009,139.95184726672198 L 1.950903220161283,139.8078528040323 L 2.9028467725446205,139.5694033573221 L 3.8268343236509,139.23879532511287 L 4.713967368259976,138.81921264348355 L 5.555702330196018,138.31469612302544 L 6.343932841636456,137.73010453362735 L 7.071067811865474,137.07106781186548 L 7.730104533627365,136.34393284163644 L 8.314696123025453,135.55570233019603 L 8.819212643483548,134.71396736825997 L 9.238795325112864,133.8268343236509 L 9.569403357322088,132.90284677254462 L 9.807852804032303,131.95090322016128 L 9.95184726672197,130.9801714032956 L 10.0,130.0 z" /><path fill-rule="evenodd" fill="#ff3333" stroke="#555555" stroke-width="7.2" opacity="0.6" d="M 75.0,130.0 L 74.95184726672197,129.0198285967044 L 74.80785280403231,128.04909677983872 L 74.56940335732209,127.09715322745538 L 74.23879532511287,126.1731656763491 L 73.81921264348355,125.28603263174003 L 73.31469612302546,124.44429766980397 L 72.73010453362737,123.65606715836354 L 72.07106781186548,122.92893218813452 L 71.34393284163646,122.26989546637263 L 70.55570233019603,121.68530387697454 L 69.71396736825997,121.18078735651645 L 68.8268343236509,120.76120467488713 L 67.90284677254462,120.43059664267791 L 66.95090322016128,120.19214719596769 L 65.98017140329561,120.04815273327803 L 65.0,120.0 L 64.0198285967044,120.04815273327803 L 63.04909677983872,120.19214719596769 L 62.09715322745538,120.43059664267791 L 61.1731656763491,120.76120467488713 L 60.28603263174002,121.18078735651645 L 59.44429766980398,121.68530387697454 L 58.65606715836355,122.26989546637263 L 57.928932188134524,122.92893218813452 L 57.26989546637263,123.65606715836354 L 56.685303876974544,124.44429766980397 L 56.18078735651645,125.28603263174003 L 55.76120467488713,126.1731656763491 L 55.43059664267791,127.09715322745538 L 55.19214719596769,128.04909677983872 L 55.04815273327803,129.0198285967044 L 55.0,130.0 L 55.04815273327803,130.9801714032956 L 55.19214719596769,131.95090322016128 L 55.43059664267791,132.90284677254462 L 55.76120467488713,133.8268343236509 L 56.18078735651645,134.71396736825997 L 56.685303876974544,135.55570233019603 L 57.26989546637263,136.34393284163644 L 57.928932188134524,137.07106781186548 L 58.65606715836354,137.73010453362735 L 59.44429766980398,138.31469612302544 L 60.28603263174002,138.81921264348355 L 61.1731656763491,139.23879532511287 L 62.09715322745537,139.56940335732207 L 63.04909677983871,139.8078528040323 L 64.0198285967044,139.95184726672198 L 65.0,140.0 L 65.9801714032956,139.95184726672198 L 66.95090322016128,139.8078528040323 L 67.90284677254462,139.5694033573221 L 68.8268343236509,139.23879532511287 L 69.71396736825997,138.81921264348355 L 70.55570233019601,138.31469612302544 L 71.34393284163646,137.73010453362735 L 72.07106781186548,137.07106781186548 L 72.73010453362737,136.34393284163644 L 73.31469612302546,135.55570233019603 L 73.81921264348355,134.71396736825997 L 74.23879532511286,133.8268343236509 L 74.56940335732209,132.90284677254462 L 74.80785280403231,131.95090322016128 L 74.95184726672197,130.9801714032956 L 75.0,130.0 z" /></g></g></svg>