<?xml version="1.0" encoding="UTF-8" standalone="no"?>
<!-- Created with Inkscape (http://www.inkscape.org/) -->

<svg
   width="47.536018mm"
   height="43.293144mm"
   viewBox="0 0 47.536018 43.293144"
   version="1.1"
   id="svg1"
   xml:space="preserve"
   inkscape:version="1.3.2 (091e20e, 2023-11-25)"
   sodipodi:docname="drawing.svg"
   inkscape:export-filename="drawing.png"
   inkscape:export-xdpi="900"
   inkscape:export-ydpi="900"
   xmlns:inkscape="http://www.inkscape.org/namespaces/inkscape"
   xmlns:sodipodi="http://sodipodi.sourceforge.net/DTD/sodipodi-0.dtd"
   xmlns="http://www.w3.org/2000/svg"
   xmlns:svg="http://www.w3.org/2000/svg"><sodipodi:namedview
     id="namedview1"
     pagecolor="#ffffff"
     bordercolor="#000000"
     borderopacity="0.25"
     inkscape:showpageshadow="2"
     inkscape:pageopacity="0.0"
     inkscape:pagecheckerboard="0"
     inkscape:deskcolor="#d1d1d1"
     inkscape:document-units="mm"
     showguides="false"
     inkscape:zoom="2.5855841"
     inkscape:cx="1826.2798"
     inkscape:cy="716.27915"
     inkscape:window-width="1680"
     inkscape:window-height="997"
     inkscape:window-x="0"
     inkscape:window-y="25"
     inkscape:window-maximized="0"
     inkscape:current-layer="layer1" /><defs
     id="defs1"><marker
       style="overflow:visible"
       id="marker83"
       refX="0"
       refY="0"
       orient="-11"
       inkscape:stockid="Triangle arrow"
       markerWidth="0.80000001"
       markerHeight="0.80000001"
       viewBox="0 0 1 1"
       inkscape:isstock="true"
       inkscape:collect="always"
       preserveAspectRatio="xMidYMid"><path
         transform="scale(0.5)"
         style="fill:context-stroke;fill-rule:evenodd;stroke:context-stroke;stroke-width:1pt"
         d="M 5.77,0 -2.88,5 V -5 Z"
         id="path83" /></marker><marker
       style="overflow:visible"
       id="Triangle"
       refX="0"
       refY="0"
       orient="47"
       inkscape:stockid="Triangle arrow"
       markerWidth="0.5"
       markerHeight="0.5"
       viewBox="0 0 1 1"
       inkscape:isstock="true"
       inkscape:collect="always"
       preserveAspectRatio="xMidYMid"><path
         transform="scale(0.5)"
         style="fill:context-stroke;fill-rule:evenodd;stroke:context-stroke;stroke-width:1pt"
         d="M 5.77,0 -2.88,5 V -5 Z"
         id="path135" /></marker><filter
       inkscape:collect="always"
       style="color-interpolation-filters:sRGB"
       id="filter2125"
       x="-0.014584586"
       y="-0.043387471"
       width="1.0291692"
       height="1.0867749"><feGaussianBlur
         inkscape:collect="always"
         stdDeviation="0.024177416"
         id="feGaussianBlur2125" /></filter><filter
       inkscape:collect="always"
       style="color-interpolation-filters:sRGB"
       id="filter2126"
       x="-0.014584586"
       y="-0.043387471"
       width="1.0291692"
       height="1.0867749"><feGaussianBlur
         inkscape:collect="always"
         stdDeviation="0.024177416"
         id="feGaussianBlur2126" /></filter><filter
       inkscape:collect="always"
       style="color-interpolation-filters:sRGB"
       id="filter2127"
       x="-0.014584586"
       y="-0.043387471"
       width="1.0291692"
       height="1.0867749"><feGaussianBlur
         inkscape:collect="always"
         stdDeviation="0.024177416"
         id="feGaussianBlur2127" /></filter><filter
       inkscape:collect="always"
       style="color-interpolation-filters:sRGB"
       id="filter2137"
       x="-0.0040257758"
       y="-0.0046606222"
       width="1.0080516"
       height="1.0093212"><feGaussianBlur
         inkscape:collect="always"
         stdDeviation="0.060849315"
         id="feGaussianBlur2137" /></filter><filter
       inkscape:collect="always"
       style="color-interpolation-filters:sRGB"
       id="filter2138"
       x="-0.0031740753"
       y="-0.0067608418"
       width="1.0063482"
       height="1.0135217"><feGaussianBlur
         inkscape:collect="always"
         stdDeviation="0.011969028"
         id="feGaussianBlur2138" /></filter></defs><g
     inkscape:label="Layer 1"
     inkscape:groupmode="layer"
     id="layer1"
     transform="translate(-464.16703,-163.84805)"><g
       id="g198"
       inkscape:export-filename="Logo.svg"
       inkscape:export-xdpi="900"
       inkscape:export-ydpi="900"><g
         id="g2154"
         transform="translate(144.07968,73.146821)"
         inkscape:export-filename="./figLight2.png"
         inkscape:export-xdpi="900"
         inkscape:export-ydpi="900"><path
           id="path2145"
           style="fill:#ff7f7f;fill-opacity:1;stroke:none;stroke-width:0.2;stroke-linecap:butt;stroke-linejoin:round;stroke-dasharray:none;stroke-opacity:1"
           d="m 344.26704,94.185843 c 0.0944,0.23588 0.30978,0.44949 0.58291,0.63872 v -1.31207 l -0.59893,-0.2961 -16.92455,3.92482 v 25.198977 c 0.33395,0.80146 2.40011,2.01036 4.47053,2.21072 l 16.92506,-3.96927 V 95.426592 l -0.79582,-0.39326 -16.25895,3.77031 c -0.71581,-0.0742 -1.99207,-0.63236 -2.68769,-1.07228 z"
           sodipodi:nodetypes="ccccccccccccc" /><path
           id="path2146"
           style="fill:#ffffff;fill-opacity:1;stroke:#000000;stroke-width:0.2;stroke-linecap:butt;stroke-linejoin:round;stroke-dasharray:none"
           d="m 344.26705,94.185853 -15.28744,3.54552 c 0.69562,0.43992 1.97189,0.99805 2.68769,1.07228 l 14.49266,-3.36052 c -0.79507,-0.26112 -1.67035,-0.7009 -1.89291,-1.25728 z"
           sodipodi:nodetypes="ccccc" /><g
           id="g2153"
           transform="translate(20.017678,1.7141216)"><path
             id="path2147"
             style="opacity:1;mix-blend-mode:normal;fill:#000000;fill-opacity:0.182891;stroke:none;stroke-width:0.2;stroke-linecap:butt;stroke-linejoin:round;stroke-dasharray:none;stroke-opacity:1;filter:url(#filter2127)"
             d="m 310.10407,95.752295 -1.14205,0.2651 c 0.69562,0.43992 1.97189,0.998056 2.68769,1.072286 l 1.29088,-0.299207 c -0.92175,-0.13417 -2.27707,-0.582967 -2.83652,-1.038179 z" /><path
             id="path2148"
             style="fill:#000000;fill-opacity:0.4;stroke:#000000;stroke-width:0.2;stroke-linecap:butt;stroke-linejoin:round;stroke-dasharray:none;stroke-opacity:1"
             d="m 324.83226,91.798391 -16.35559,3.79305 c 0.006,0.0242 0.0217,0.0519 0.046,0.0822 0.002,0.003 0.006,0.007 0.009,0.01 0.0782,0.0924 0.23204,0.20834 0.43046,0.33383 l 15.28744,-3.54552 c 0.0944,0.23588 0.30978,0.44949 0.58291,0.63872 z" /><path
             style="opacity:1;fill:#000000;fill-opacity:0.152941;stroke:#000000;stroke-width:0.2;stroke-linecap:butt;stroke-linejoin:round;stroke-dasharray:none"
             d="m 328.70417,93.712701 -0.79579,-0.39346 -16.25879,3.77007 c -0.99515,-0.1032 -3.09192,-1.14429 -3.17302,-1.49812 l 16.35572,-3.79285 -0.59886,-0.29609 -16.92471,3.92469 c 0.33394,0.80146 2.40031,2.01009 4.47074,2.21045 z"
             id="path2149"
             sodipodi:nodetypes="ccccccccc" /><path
             style="opacity:1;fill:#000000;fill-opacity:0.0980392;stroke:#000000;stroke-width:0.2;stroke-linecap:butt;stroke-linejoin:round;stroke-dasharray:none"
             d="m 307.30872,95.426941 c 0.33394,0.80146 2.40031,2.01009 4.47074,2.21045 v 25.199159 c -2.07042,-0.20036 -4.13679,-1.40899 -4.47074,-2.21045 z"
             id="path2150"
             sodipodi:nodetypes="ccccc" /><path
             style="opacity:1;fill:#ffffff;fill-opacity:0.298039;stroke:#000000;stroke-width:0.2;stroke-linecap:butt;stroke-linejoin:round;stroke-dasharray:none"
             d="m 311.77946,101.34158 c -2.07043,-0.20036 -4.1368,-1.408989 -4.47074,-2.210449 v 2.116679 c 0.33394,0.80146 2.40031,2.01009 4.47074,2.21045 z"
             id="path2151"
             sodipodi:nodetypes="ccccc" /><path
             style="fill:#000000;fill-opacity:0.2;stroke:#000000;stroke-width:0.2;stroke-linecap:butt;stroke-linejoin:round;stroke-dasharray:none;stroke-opacity:1"
             d="m 311.77947,97.637391 16.92491,-3.924921 -2.1e-4,25.15503 -16.9247,3.96905 z"
             id="path2152"
             sodipodi:nodetypes="ccccc" /><path
             style="opacity:1;fill:#ffffff;fill-opacity:0.298039;stroke:#000000;stroke-width:0.2;stroke-linecap:butt;stroke-linejoin:round;stroke-dasharray:none"
             d="m 311.77947,117.01568 c -2.07043,-0.20036 -4.1368,-1.40899 -4.47074,-2.21045 v 2.11668 c 0.33394,0.80146 2.40031,2.01009 4.47074,2.21045 z"
             id="path2153"
             sodipodi:nodetypes="ccccc" /></g></g><g
         id="g2163"
         transform="translate(208.56205,77.139881)"><path
           id="path2154"
           style="fill:#fff27f;fill-opacity:1;stroke:none;stroke-width:0.2;stroke-linecap:butt;stroke-linejoin:round;stroke-dasharray:none;stroke-opacity:1"
           d="m 284.78458,92.932399 c 0.0944,0.23588 0.30978,0.44949 0.58291,0.63872 v -1.31207 l -0.59893,-0.2961 -16.92455,3.92482 v 25.198981 c 0.33395,0.80146 2.40011,2.01036 4.47053,2.21072 L 289.2396,119.3282 V 94.173149 l -0.79582,-0.39326 -16.25895,3.77031 c -0.71581,-0.0742 -1.99207,-0.63236 -2.68769,-1.07228 z"
           sodipodi:nodetypes="ccccccccccccc" /><path
           id="path2155"
           style="fill:#ffffff;fill-opacity:1;stroke:#000000;stroke-width:0.2;stroke-linecap:butt;stroke-linejoin:round;stroke-dasharray:none"
           d="m 284.78459,92.932409 -15.28744,3.54552 c 0.69562,0.43992 1.97189,0.99805 2.68769,1.07228 l 14.49266,-3.36052 c -0.79507,-0.26112 -1.67035,-0.7009 -1.89291,-1.25728 z"
           sodipodi:nodetypes="ccccc" /><g
           id="g2162"
           transform="translate(-39.46476,0.46067813)"><path
             id="path2156"
             style="opacity:1;fill:#000000;fill-opacity:0.182891;stroke:none;stroke-width:0.2;stroke-linecap:butt;stroke-linejoin:round;stroke-dasharray:none;stroke-opacity:1;filter:url(#filter2126)"
             d="m 310.10407,95.752295 -1.14205,0.2651 c 0.69562,0.43992 1.97189,0.998056 2.68769,1.072286 l 1.29088,-0.299207 c -0.92175,-0.13417 -2.27707,-0.582967 -2.83652,-1.038179 z" /><path
             id="path2157"
             style="fill:#000000;fill-opacity:0.4;stroke:#000000;stroke-width:0.2;stroke-linecap:butt;stroke-linejoin:round;stroke-dasharray:none;stroke-opacity:1"
             d="m 324.83226,91.798391 -16.35559,3.79305 c 0.006,0.0242 0.0217,0.0519 0.046,0.0822 0.002,0.003 0.006,0.007 0.009,0.01 0.0782,0.0924 0.23204,0.20834 0.43046,0.33383 l 15.28744,-3.54552 c 0.0944,0.23588 0.30978,0.44949 0.58291,0.63872 z" /><path
             style="opacity:1;fill:#000000;fill-opacity:0.152941;stroke:#000000;stroke-width:0.2;stroke-linecap:butt;stroke-linejoin:round;stroke-dasharray:none"
             d="m 328.70417,93.712701 -0.79579,-0.39346 -16.25879,3.77007 c -0.99515,-0.1032 -3.09192,-1.14429 -3.17302,-1.49812 l 16.35572,-3.79285 -0.59886,-0.29609 -16.92471,3.92469 c 0.33394,0.80146 2.40031,2.01009 4.47074,2.21045 z"
             id="path2158"
             sodipodi:nodetypes="ccccccccc" /><path
             style="opacity:1;fill:#000000;fill-opacity:0.0980392;stroke:#000000;stroke-width:0.2;stroke-linecap:butt;stroke-linejoin:round;stroke-dasharray:none"
             d="m 307.30872,95.426941 c 0.33394,0.80146 2.40031,2.01009 4.47074,2.21045 v 25.199159 c -2.07042,-0.20036 -4.13679,-1.40899 -4.47074,-2.21045 z"
             id="path2159"
             sodipodi:nodetypes="ccccc" /><path
             style="opacity:1;fill:#ffffff;fill-opacity:0.298039;stroke:#000000;stroke-width:0.2;stroke-linecap:butt;stroke-linejoin:round;stroke-dasharray:none"
             d="m 311.77946,101.34158 c -2.07043,-0.20036 -4.1368,-1.408989 -4.47074,-2.210449 v 2.116679 c 0.33394,0.80146 2.40031,2.01009 4.47074,2.21045 z"
             id="path2160"
             sodipodi:nodetypes="ccccc" /><path
             style="fill:#000000;fill-opacity:0.2;stroke:#000000;stroke-width:0.2;stroke-linecap:butt;stroke-linejoin:round;stroke-dasharray:none;stroke-opacity:1"
             d="m 311.77947,97.637391 16.9247,-3.92469 V 118.8675 l -16.9247,3.96905 z"
             id="path2161"
             sodipodi:nodetypes="ccccc" /><path
             style="opacity:1;fill:#ffffff;fill-opacity:0.298039;stroke:#000000;stroke-width:0.2;stroke-linecap:butt;stroke-linejoin:round;stroke-dasharray:none"
             d="m 311.77947,117.01568 c -2.07043,-0.20036 -4.1368,-1.40899 -4.47074,-2.21045 v 2.11668 c 0.33394,0.80146 2.40031,2.01009 4.47074,2.21045 z"
             id="path2162"
             sodipodi:nodetypes="ccccc" /></g></g><g
         id="g2172"
         transform="translate(128.82788,60.071951)"><path
           id="path2163"
           style="fill:#7fdfff;fill-opacity:1;stroke:none;stroke-width:0.2;stroke-linecap:butt;stroke-linejoin:round;stroke-dasharray:none;stroke-opacity:1"
           d="m 369.51865,111.6816 c 0.0944,0.23588 0.30978,0.44949 0.58291,0.63872 v -1.31207 l -0.59893,-0.2961 -16.92455,3.92482 v 25.19898 c 0.33395,0.80146 2.40011,2.01036 4.47053,2.21072 l 16.92506,-3.96927 v -25.15505 l -0.79582,-0.39326 -16.25895,3.77031 c -0.71581,-0.0742 -1.99207,-0.63236 -2.68769,-1.07228 z"
           sodipodi:nodetypes="ccccccccccccc" /><path
           id="path2164"
           style="fill:#ffffff;fill-opacity:1;stroke:#000000;stroke-width:0.2;stroke-linecap:butt;stroke-linejoin:round;stroke-dasharray:none"
           d="m 369.51866,111.68161 -15.28744,3.54552 c 0.69562,0.43992 1.97189,0.99805 2.68769,1.07228 l 14.49266,-3.36052 c -0.79507,-0.26112 -1.67035,-0.7009 -1.89291,-1.25728 z"
           sodipodi:nodetypes="ccccc" /><g
           id="g2171"
           transform="translate(45.269292,19.209883)"><path
             id="path2165"
             style="opacity:1;fill:#000000;fill-opacity:0.182891;stroke:none;stroke-width:0.2;stroke-linecap:butt;stroke-linejoin:round;stroke-dasharray:none;stroke-opacity:1;filter:url(#filter2125)"
             d="m 310.10407,95.752295 -1.14205,0.2651 c 0.69562,0.43992 1.97189,0.998056 2.68769,1.072286 l 1.29088,-0.299207 c -0.92175,-0.13417 -2.27707,-0.582967 -2.83652,-1.038179 z" /><path
             id="path2166"
             style="fill:#000000;fill-opacity:0.4;stroke:#000000;stroke-width:0.2;stroke-linecap:butt;stroke-linejoin:round;stroke-dasharray:none;stroke-opacity:1"
             d="m 324.83226,91.798391 -16.35559,3.79305 c 0.006,0.0242 0.0217,0.0519 0.046,0.0822 0.002,0.003 0.006,0.007 0.009,0.01 0.0782,0.0924 0.23204,0.20834 0.43046,0.33383 l 15.28744,-3.54552 c 0.0944,0.23588 0.30978,0.44949 0.58291,0.63872 z" /><path
             style="opacity:1;fill:#000000;fill-opacity:0.152941;stroke:#000000;stroke-width:0.2;stroke-linecap:butt;stroke-linejoin:round;stroke-dasharray:none"
             d="m 328.70417,93.712701 -0.79579,-0.39346 -16.25879,3.77007 c -0.99515,-0.1032 -3.09192,-1.14429 -3.17302,-1.49812 l 16.35572,-3.79285 -0.59886,-0.29609 -16.92471,3.92469 c 0.33394,0.80146 2.40031,2.01009 4.47074,2.21045 z"
             id="path2167"
             sodipodi:nodetypes="ccccccccc" /><path
             style="opacity:1;fill:#000000;fill-opacity:0.0980392;stroke:#000000;stroke-width:0.2;stroke-linecap:butt;stroke-linejoin:round;stroke-dasharray:none"
             d="m 307.30872,95.426941 c 0.33394,0.80146 2.40031,2.01009 4.47074,2.21045 v 25.199159 c -2.07042,-0.20036 -4.13679,-1.40899 -4.47074,-2.21045 z"
             id="path2168"
             sodipodi:nodetypes="ccccc" /><path
             style="opacity:1;fill:#ffffff;fill-opacity:0.298039;stroke:#000000;stroke-width:0.2;stroke-linecap:butt;stroke-linejoin:round;stroke-dasharray:none"
             d="m 311.77946,101.34158 c -2.07043,-0.20036 -4.1368,-1.408989 -4.47074,-2.210449 v 2.116679 c 0.33394,0.80146 2.40031,2.01009 4.47074,2.21045 z"
             id="path2169"
             sodipodi:nodetypes="ccccc" /><path
             style="fill:#000000;fill-opacity:0.2;stroke:#000000;stroke-width:0.2;stroke-linecap:butt;stroke-linejoin:round;stroke-dasharray:none;stroke-opacity:1"
             d="m 311.77947,97.637391 16.9247,-3.92469 V 118.8675 l -16.9247,3.96905 z"
             id="path2170"
             sodipodi:nodetypes="ccccc" /><path
             style="opacity:1;fill:#ffffff;fill-opacity:0.298039;stroke:#000000;stroke-width:0.2;stroke-linecap:butt;stroke-linejoin:round;stroke-dasharray:none"
             d="m 311.77947,117.01568 c -2.07043,-0.20036 -4.1368,-1.40899 -4.47074,-2.21045 v 2.11668 c 0.33394,0.80146 2.40031,2.01009 4.47074,2.21045 z"
             id="path2171"
             sodipodi:nodetypes="ccccc" /></g></g><g
         id="g2181"
         transform="translate(185.75353,81.560781)"><path
           id="path2172"
           style="fill:#7ffff7;fill-opacity:1;stroke:none;stroke-width:0.2;stroke-linecap:butt;stroke-linejoin:round;stroke-dasharray:none;stroke-opacity:1"
           d="m 316.5346,92.932399 c 0.0944,0.23588 0.30978,0.44949 0.58291,0.63872 v -1.31207 l -0.59893,-0.2961 -16.92455,3.92482 v 25.198981 c 0.33395,0.80146 2.40011,2.01036 4.47053,2.21072 l 16.92506,-3.96927 V 94.173149 l -0.79582,-0.39326 -16.25895,3.77031 c -0.71581,-0.0742 -1.99207,-0.63236 -2.68769,-1.07228 z"
           sodipodi:nodetypes="ccccccccccccc" /><path
           id="path2173"
           style="fill:#ffffff;fill-opacity:1;stroke:#000000;stroke-width:0.2;stroke-linecap:butt;stroke-linejoin:round;stroke-dasharray:none"
           d="m 316.53461,92.932409 -15.28744,3.54552 c 0.69562,0.43992 1.97189,0.99805 2.68769,1.07228 l 14.49266,-3.36052 c -0.79507,-0.26112 -1.67035,-0.7009 -1.89291,-1.25728 z"
           sodipodi:nodetypes="ccccc" /><g
           id="g2180"
           transform="translate(-7.7147583,0.46067813)"><path
             id="path2174"
             style="opacity:1;fill:#000000;fill-opacity:0.182891;stroke:none;stroke-width:0.2;stroke-linecap:butt;stroke-linejoin:round;stroke-dasharray:none;stroke-opacity:1"
             d="m 310.10407,95.752295 -1.14205,0.2651 c 0.69562,0.43992 1.97189,0.998056 2.68769,1.072286 l 1.29088,-0.299207 c -0.92175,-0.13417 -2.27707,-0.582967 -2.83652,-1.038179 z" /><path
             id="path2175"
             style="fill:#000000;fill-opacity:0.4;stroke:#000000;stroke-width:0.2;stroke-linecap:butt;stroke-linejoin:round;stroke-dasharray:none;stroke-opacity:1"
             d="m 324.83226,91.798391 -16.35559,3.79305 c 0.006,0.0242 0.0217,0.0519 0.046,0.0822 0.002,0.003 0.006,0.007 0.009,0.01 0.0782,0.0924 0.23204,0.20834 0.43046,0.33383 l 15.28744,-3.54552 c 0.0944,0.23588 0.30978,0.44949 0.58291,0.63872 z" /><path
             style="opacity:1;fill:#000000;fill-opacity:0.152941;stroke:#000000;stroke-width:0.2;stroke-linecap:butt;stroke-linejoin:round;stroke-dasharray:none"
             d="m 328.70417,93.712701 -0.79579,-0.39346 -16.25879,3.77007 c -0.99515,-0.1032 -3.09192,-1.14429 -3.17302,-1.49812 l 16.35572,-3.79285 -0.59886,-0.29609 -16.92471,3.92469 c 0.33394,0.80146 2.40031,2.01009 4.47074,2.21045 z"
             id="path2176"
             sodipodi:nodetypes="ccccccccc" /><path
             style="opacity:1;fill:#000000;fill-opacity:0.0980392;stroke:#000000;stroke-width:0.2;stroke-linecap:butt;stroke-linejoin:round;stroke-dasharray:none"
             d="m 307.30872,95.426941 c 0.33394,0.80146 2.40031,2.01009 4.47074,2.21045 v 25.199159 c -2.07042,-0.20036 -4.13679,-1.40899 -4.47074,-2.21045 z"
             id="path2177"
             sodipodi:nodetypes="ccccc" /><path
             style="opacity:1;fill:#ffffff;fill-opacity:0.298039;stroke:#000000;stroke-width:0.2;stroke-linecap:butt;stroke-linejoin:round;stroke-dasharray:none"
             d="m 311.77946,101.34158 c -2.07043,-0.20036 -4.1368,-1.408989 -4.47074,-2.210449 v 2.116679 c 0.33394,0.80146 2.40031,2.01009 4.47074,2.21045 z"
             id="path2178"
             sodipodi:nodetypes="ccccc" /><path
             style="fill:#000000;fill-opacity:0.2;stroke:#000000;stroke-width:0.2;stroke-linecap:butt;stroke-linejoin:round;stroke-dasharray:none;stroke-opacity:1"
             d="m 311.77947,97.637391 16.9247,-3.92469 V 118.8675 l -16.9247,3.96905 z"
             id="path2179"
             sodipodi:nodetypes="ccccc" /><path
             style="opacity:1;fill:#ffffff;fill-opacity:0.298039;stroke:#000000;stroke-width:0.2;stroke-linecap:butt;stroke-linejoin:round;stroke-dasharray:none"
             d="m 311.77947,117.01568 c -2.07043,-0.20036 -4.1368,-1.40899 -4.47074,-2.21045 v 2.11668 c 0.33394,0.80146 2.40031,2.01009 4.47074,2.21045 z"
             id="path2180"
             sodipodi:nodetypes="ccccc" /></g></g><g
         id="g2186"
         style="mix-blend-mode:normal;filter:url(#filter2137)"
         transform="translate(121.70835,42.333335)"><path
           id="path2181"
           style="mix-blend-mode:normal;fill:#000000;fill-opacity:0.45;stroke:none;stroke-width:0.2;stroke-linecap:butt;stroke-linejoin:round;stroke-dasharray:none"
           d="m 367.22101,124.32574 -0.59839,-0.29605 -16.92507,3.92484 c 0.24315,0.58355 1.40858,1.37897 2.82154,1.84794 3.18212,-2.91576 10.90033,-4.87762 14.69599,-4.1729 z m 3.07632,1.5209 -1.55701,0.36121 c 0.6923,0.50751 0.87244,1.29725 0.28784,2.42053 -0.64316,1.23579 -1.81855,2.61923 -2.8758,3.80133 -0.92291,1.03188 -1.71814,1.64369 -2.41122,2.0903 0.14246,0.023 0.2843,0.0523 0.42737,0.0661 v 1.16737 c 0.81355,0.69265 2.37554,1.42047 3.94136,1.57201 l 0.8232,-0.19068 c -0.34176,-1.19683 -0.78483,-2.39607 -0.11317,-3.72639 0.99397,-1.96871 2.56468,-3.57571 3.4091,-5.02605 -0.002,-0.002 -0.005,-0.003 -0.008,-0.005 v -1.31207 l -0.59893,-0.29609 -0.52865,0.12246 v -0.65216 h -10e-4 z"
           sodipodi:nodetypes="ccccccccsscccccscccccccc" /><path
           id="path2182"
           style="mix-blend-mode:normal;fill:#000000;fill-opacity:0.35;stroke:none;stroke-width:0.2;stroke-linecap:butt;stroke-linejoin:round;stroke-dasharray:none"
           d="m 362.36864,146.20529 c 2.22041,0.73867 2.33657,-2.38229 3.76359,-3.09387 0.78302,-0.39044 1.45161,-0.93779 1.97766,-1.59938 v -4.18631 c -1.56582,-0.15153 -3.12781,-0.87934 -3.94136,-1.572 v -1.16737 c -0.14694,-0.0142 -0.29349,-0.035 -0.43977,-0.0589 l -2e-5,-2.2e-4 c -1.11516,0.71661 -1.96311,1.00547 -2.63343,1.90945 -1.04272,1.40619 -0.48442,3.64793 0.11782,5.32939 0.5797,1.61853 -1.06943,3.50077 0.91777,4.34237 -0.47133,0.5571 -0.13198,1.50637 -0.28887,1.93218 -0.15756,0.42761 -0.56653,0.47007 -0.40721,0.65681 0.15932,0.18674 0.39795,-0.26817 0.64544,-0.27079 0.24749,-0.003 0.55614,0.50926 0.73019,0.28836 0.17404,-0.2209 -0.41091,-0.31379 -0.51883,-0.73846 -0.10792,-0.42468 -0.37393,-1.15171 0.0811,-1.77101"
           sodipodi:nodetypes="csccccccsscsscssc" /><path
           id="path2183"
           style="mix-blend-mode:normal;fill:#000000;fill-opacity:0.35;stroke:none;stroke-width:0.2;stroke-linecap:butt;stroke-linejoin:round;stroke-dasharray:none"
           d="m 349.69755,149.30619 v 3.84731 c 0.33395,0.80145 2.40063,2.01035 4.47105,2.21071 v -0.43511 c -2.1899,-1.26659 -3.62085,-3.25053 -4.47105,-5.62291 z"
           sodipodi:nodetypes="ccccc" /><path
           id="path2184"
           style="mix-blend-mode:normal;fill:#000000;fill-opacity:0.35;stroke:none;stroke-width:0.2;stroke-linejoin:round;stroke-dasharray:none"
           d="m 349.69755,127.95452 v 8.4987 c 0.44368,-1.83426 0.99684,-3.5475 1.59629,-5.0214 0.23042,-0.56655 0.65963,-1.11092 1.22266,-1.62728 -1.41271,-0.46892 -2.57582,-1.26652 -2.81895,-1.85002 z"
           sodipodi:nodetypes="ccscc" /><path
           id="path2185"
           style="mix-blend-mode:normal;fill:#000000;fill-opacity:0.4;stroke:none;stroke-width:0.2;stroke-linecap:butt;stroke-linejoin:round;stroke-dasharray:none;stroke-opacity:1"
           d="m 368.93307,137.13484 -0.8232,0.19068 v 4.18631 c 0.43265,-0.54414 0.77065,-1.16427 0.98133,-1.84898 0.26769,-0.86995 0.0788,-1.69844 -0.15813,-2.52801 z" /><path
           id="path2186"
           style="mix-blend-mode:normal;fill:#000000;fill-opacity:0.5;stroke:none;stroke-width:0.2;stroke-linecap:butt;stroke-linejoin:round;stroke-dasharray:none;stroke-opacity:1"
           d="m 385.97338,152.70391 c -0.29107,3.3e-4 -0.59397,0.0245 -0.90796,0.078 v 2.06189 c 0.32784,-0.0804 0.62523,-0.1085 0.90796,-0.11317 z" /></g><path
         style="fill:#ff2a2a;fill-opacity:1;stroke:none;stroke-width:0.144045;stroke-linecap:round;stroke-linejoin:round;stroke-dasharray:none;stroke-opacity:1"
         d="m 483.84501,187.37641 c -0.48027,0.5561 -0.13684,1.51155 -0.29439,1.93916 -0.15756,0.42761 -0.56684,0.46998 -0.40752,0.65672 0.15932,0.18674 0.39792,-0.26816 0.64541,-0.27078 0.24749,-0.003 0.5562,0.5093 0.73025,0.2884 0.17404,-0.2209 -0.41063,-0.31365 -0.51855,-0.73832 -0.10792,-0.42468 -0.25753,-1.0962 0.19746,-1.7155"
         id="path2188"
         sodipodi:nodetypes="czzzzzc" /><path
         id="path2189"
         style="fill:#9ecc66;fill-opacity:1;stroke:none;stroke-width:0.2;stroke-linejoin:round;stroke-dasharray:none"
         d="m 487.5595,163.9482 c -5.37118,0.0169 -15.0365,1.3026 -19.02881,7.62848 -8.16352,12.93518 -2.93289,26.58802 1.84691,29.58527 3.76608,2.36158 7.8481,2.90098 15.07867,1.67483 -0.0445,-0.0649 -0.0832,-0.12833 -0.10852,-0.18913 v -0.6041 c -1.59904,-0.28158 -3.10431,-1.09627 -3.7083,-1.78542 l -0.76275,0.1788 c -1.57433,-0.15235 -3.14407,-0.88742 -3.95376,-1.58336 -8.99328,-3.84976 -7.09475,-18.3425 -3.92069,-26.14673 2.1516,-5.29024 20.85918,-8.80764 17.73432,-2.80345 -0.64316,1.23578 -1.81855,2.61923 -2.8758,3.80132 -2.41631,2.7016 -3.96832,2.53876 -5.05705,4.00699 -1.04272,1.40619 -0.48442,3.64792 0.11782,5.32939 0.60225,1.68148 -1.21304,3.65109 1.15549,4.43901 2.22043,0.73866 2.33657,-2.38229 3.76359,-3.09387 1.42703,-0.71158 2.49214,-1.93115 2.95899,-3.44837 0.65389,-2.12504 -1.40852,-4.00196 -0.2713,-6.2544 1.51787,-3.00636 4.39253,-5.17215 3.94756,-7.21868 -0.35111,-1.61486 -2.35899,-3.40638 -5.90248,-3.50418 -0.31696,-0.009 -0.65581,-0.0135 -1.01389,-0.0124 z m 20.14554,31.08803 c -0.29802,-10e-4 -0.60901,0.0242 -0.93121,0.0791 v 2.06189 c 3.71447,-0.91048 4.63389,3.13779 0.47698,9.864 6.50143,-5.84648 4.92453,-11.98405 0.45423,-12.00495 z" /><g
         id="g2192"
         transform="translate(448.20436,24.870836)"><ellipse
           style="fill:#b3b3b3;fill-opacity:1;stroke:#000000;stroke-width:0.2;stroke-linecap:round;stroke-linejoin:round;stroke-dasharray:none;stroke-opacity:1"
           id="ellipse2189"
           cx="60.436501"
           cy="147.48898"
           rx="0.58990407"
           ry="0.9302333"
           transform="rotate(9.1701858)" /><path
           style="fill:#007cff;fill-opacity:1;stroke:#006f80;stroke-width:0.256071;stroke-linecap:round;stroke-linejoin:round;stroke-dasharray:none;stroke-opacity:1"
           d="m 36.053659,155.54351 c -0.06767,-0.12597 -0.11519,-0.54283 0.116761,-0.71445 0.07813,0.17539 0.01605,0.6335 -0.116761,0.71445 z"
           id="path2190"
           sodipodi:nodetypes="ccc" /><path
           id="path2191"
           style="opacity:0.784504;fill:#ffffff;fill-opacity:1;stroke:none;stroke-width:0.2;stroke-linecap:round;stroke-linejoin:round;stroke-dasharray:none;stroke-opacity:1"
           d="m 36.230179,154.31307 c -0.265947,0.0119 -0.478606,0.16991 -0.58258,0.56838 0.343108,0.0684 0.677692,-0.0774 0.99711,-0.29174 -0.08,-0.12071 -0.21949,-0.2532 -0.337109,-0.27231 -0.02546,-0.004 -0.05133,-0.005 -0.07742,-0.004 z"
           sodipodi:nodetypes="cccccc" /><path
           style="fill:#b3b3b3;fill-opacity:1;stroke:#000000;stroke-width:0.2;stroke-linecap:round;stroke-linejoin:round;stroke-dasharray:none;stroke-opacity:1"
           d="m 36.067025,155.48654 c -0.04911,-0.10588 -0.0836,-0.45626 0.08474,-0.60051 0.0567,0.14742 0.01165,0.53247 -0.08474,0.60051 z"
           id="path2192"
           sodipodi:nodetypes="ccc" /><ellipse
           style="fill:none;fill-opacity:1;stroke:#000000;stroke-width:0.2;stroke-linecap:round;stroke-linejoin:round;stroke-dasharray:none;stroke-opacity:1"
           id="ellipse2192"
           cx="60.436501"
           cy="147.48898"
           rx="0.58990407"
           ry="0.9302333"
           transform="rotate(9.1701858)" /></g><g
         id="g2195"
         transform="rotate(13.491366,152.17604,2079.7732)"><ellipse
           style="fill:#b3b3b3;fill-opacity:1;stroke:#000000;stroke-width:0.2;stroke-linecap:round;stroke-linejoin:round;stroke-dasharray:none;stroke-opacity:1"
           id="ellipse2193"
           cx="60.436501"
           cy="147.48898"
           rx="0.58990407"
           ry="0.9302333"
           transform="rotate(9.1701858)" /><path
           style="fill:#00ff00;fill-opacity:1;stroke:#006f80;stroke-width:0.256071;stroke-linecap:round;stroke-linejoin:round;stroke-dasharray:none;stroke-opacity:1"
           d="m 36.053659,155.54351 c -0.06767,-0.12597 -0.11519,-0.54283 0.116761,-0.71445 0.07813,0.17539 0.01605,0.6335 -0.116761,0.71445 z"
           id="path2193"
           sodipodi:nodetypes="ccc" /><path
           id="path2194"
           style="opacity:0.784504;fill:#ffffff;fill-opacity:1;stroke:none;stroke-width:0.2;stroke-linecap:round;stroke-linejoin:round;stroke-dasharray:none;stroke-opacity:1"
           d="m 36.230179,154.31307 c -0.265947,0.0119 -0.478606,0.16991 -0.58258,0.56838 0.343108,0.0684 0.677692,-0.0774 0.99711,-0.29174 -0.08,-0.12071 -0.21949,-0.2532 -0.337109,-0.27231 -0.02546,-0.004 -0.05133,-0.005 -0.07742,-0.004 z"
           sodipodi:nodetypes="cccccc" /><path
           style="fill:#b3b3b3;fill-opacity:1;stroke:#000000;stroke-width:0.2;stroke-linecap:round;stroke-linejoin:round;stroke-dasharray:none;stroke-opacity:1"
           d="m 36.067025,155.48654 c -0.04911,-0.10588 -0.0836,-0.45626 0.08474,-0.60051 0.0567,0.14742 0.01165,0.53247 -0.08474,0.60051 z"
           id="path2195"
           sodipodi:nodetypes="ccc" /><ellipse
           style="fill:none;fill-opacity:1;stroke:#000000;stroke-width:0.2;stroke-linecap:round;stroke-linejoin:round;stroke-dasharray:none;stroke-opacity:1"
           id="ellipse2195"
           cx="60.436501"
           cy="147.48898"
           rx="0.58990407"
           ry="0.9302333"
           transform="rotate(9.1701858)" /></g><path
         id="path2196"
         style="fill:#000000;fill-opacity:0.5;stroke:none;stroke-width:0.2;stroke-linecap:butt;stroke-linejoin:round;stroke-dasharray:none;stroke-opacity:1"
         d="m 507.68176,195.03726 c -0.29107,3.3e-4 -0.59397,0.0245 -0.90796,0.078 v 2.06189 c 0.32784,-0.0804 0.62523,-0.1085 0.90796,-0.11317 z" /><path
         id="path2197"
         style="opacity:0.447942;fill:#343434;fill-opacity:1;stroke:none;stroke-width:2.2;stroke-linecap:round;stroke-linejoin:round;stroke-dasharray:none;stroke-opacity:1"
         d="m 484.07906,187.48213 c -0.14704,0.17087 -0.23801,0.42218 -0.27906,0.6351 -0.0646,0.33508 -0.0258,0.91018 0.11473,1.22111 0.0496,0.10984 0.17622,0.19942 0.33744,0.27079 -0.10755,-0.0894 -0.21237,-0.20094 -0.25218,-0.3576 -0.10792,-0.42468 -0.25707,-1.09636 0.19792,-1.71566 z" /><path
         id="path2198"
         style="opacity:0.447942;fill:#343434;fill-opacity:1;stroke:none;stroke-width:2.2;stroke-linecap:round;stroke-linejoin:round;stroke-dasharray:none;stroke-opacity:1"
         d="m 483.7659,189.60499 c -0.19202,0.001 -0.43923,0.21041 -0.58498,0.39843 0.15796,0.0879 0.37911,-0.29937 0.60771,-0.30179 0.0685,-8.3e-4 0.14173,0.0382 0.2155,0.0899 -0.0944,-0.0942 -0.19379,-0.18294 -0.19379,-0.18294 -0.0144,-0.003 -0.0293,-0.004 -0.0444,-0.004 z" /><path
         style="fill:none;fill-opacity:1;stroke:#000000;stroke-width:0.144045;stroke-linecap:round;stroke-linejoin:round;stroke-dasharray:none;stroke-opacity:1"
         d="m 483.84501,187.37641 c -0.48027,0.5561 -0.13684,1.51155 -0.29439,1.93916 -0.15756,0.42761 -0.56684,0.46998 -0.40752,0.65672 0.15932,0.18674 0.39792,-0.26816 0.64541,-0.27078 0.24749,-0.003 0.5562,0.5093 0.73025,0.2884 0.17404,-0.2209 -0.41063,-0.31365 -0.51855,-0.73832 -0.10792,-0.42468 -0.25753,-1.0962 0.19746,-1.7155"
         id="path2199"
         sodipodi:nodetypes="czzzzzc" /><path
         id="path2200"
         style="stroke-width:0.0999999;stroke-linecap:round;stroke-linejoin:round"
         d="m 484.79524,186.9135 c 0.0424,-0.10358 0.0754,-0.1998 0.14933,-0.15709 0.0744,0.043 0.0975,0.14522 0.0551,0.2488 -0.0424,0.10359 -0.14087,0.15002 -0.21523,0.10708 -0.0743,-0.0429 -0.0316,-0.0952 0.0108,-0.19879 z"
         sodipodi:nodetypes="sssss" /><path
         style="fill:none;fill-opacity:0.45;stroke:#000000;stroke-width:0.2;stroke-linecap:butt;stroke-linejoin:round;stroke-dasharray:none;stroke-opacity:1"
         d="m 505.68466,177.04071 3e-5,23.03818 -14.80802,3.47278 -2e-5,-23.03818 z"
         id="path2201" /><g
         id="g2204"
         transform="translate(121.70835,52.916671)"><path
           id="path2202"
           style="fill:#000000;fill-opacity:0.36;stroke:none;stroke-width:0.2;stroke-linejoin:round;stroke-dasharray:none"
           d="m 365.30173,111.04128 c -0.34101,0.006 -0.69462,0.0184 -1.06246,0.0357 -0.11239,0.14684 -0.20701,0.30785 -0.25322,0.48576 -0.0561,0.21593 -0.0478,0.45096 0.0429,0.65267 0.0907,0.20171 0.2675,0.36646 0.48163,0.42375 0.10706,0.0286 0.22161,0.0304 0.32969,0.003 0.10809,-0.0278 0.20952,-0.0858 0.28681,-0.16691 0.10966,-0.11502 0.16718,-0.27084 0.19275,-0.42685 0.0256,-0.15601 0.0218,-0.31458 0.0248,-0.47232 0.003,-0.16164 0.0133,-0.32538 -0.0217,-0.48266 -0.004,-0.0183 -0.0158,-0.0337 -0.0212,-0.0517 z m 4.78214,0.6811 c -0.0632,0.0129 -0.12737,0.0178 -0.18914,0.0346 -0.17145,0.0466 -0.34404,0.0929 -0.50539,0.16588 -0.16135,0.073 -0.31203,0.17458 -0.41651,0.31471 -0.0522,0.0701 -0.0926,0.14949 -0.11421,0.23358 -0.0216,0.0841 -0.0244,0.17316 -0.005,0.25787 0.0197,0.0847 0.0626,0.1647 0.12506,0.22686 0.0625,0.0622 0.14449,0.10563 0.23254,0.11937 0.0917,0.0143 0.18669,-0.004 0.2713,-0.0403 0.0846,-0.0367 0.16008,-0.0916 0.22893,-0.15193 0.1377,-0.12056 0.25408,-0.26594 0.41134,-0.36122 0.11679,-0.0708 0.25126,-0.11055 0.36897,-0.17983 0.0589,-0.0346 0.11355,-0.0773 0.15503,-0.13074 0.0378,-0.0487 0.0612,-0.10764 0.0661,-0.16847 -0.19624,-0.11478 -0.40631,-0.22146 -0.62942,-0.32039 z m -11.36003,0.0243 c -0.48194,0.0973 -0.96578,0.20536 -1.45056,0.32763 -0.0113,0.0661 -0.0213,0.13256 -0.0222,0.19947 -0.002,0.17265 0.0276,0.34453 0.0744,0.51108 0.0835,0.29689 0.23072,0.59054 0.48524,0.77308 0.12726,0.0913 0.27945,0.1519 0.43718,0.16174 0.15773,0.01 0.32051,-0.0327 0.44493,-0.12764 0.0813,-0.062 0.14472,-0.14489 0.18914,-0.23564 0.0444,-0.0907 0.0703,-0.18952 0.0822,-0.28939 0.0236,-0.19974 -0.007,-0.40119 -0.0382,-0.59996 -0.0361,-0.23108 -0.0741,-0.46567 -0.17674,-0.67696 -0.007,-0.0151 -0.0173,-0.0287 -0.0253,-0.0434 z m -6.67504,2.28203 c -0.59226,0.31389 -1.15794,0.66588 -1.70274,1.04438 0.006,0.0242 0.008,0.0495 0.015,0.0734 0.0671,0.21765 0.1727,0.4222 0.29714,0.61288 0.22184,0.33993 0.52022,0.65062 0.90434,0.7798 0.19206,0.0646 0.40215,0.0806 0.59841,0.031 0.19626,-0.0496 0.37763,-0.16737 0.49093,-0.33538 0.074,-0.10975 0.11795,-0.23812 0.13539,-0.36949 0.0174,-0.13137 0.009,-0.26582 -0.0171,-0.39584 -0.052,-0.26004 -0.17164,-0.5006 -0.28991,-0.73794 -0.12302,-0.24689 -0.25554,-0.49175 -0.43149,-0.7028 z m 18.79833,1.19579 c -0.12835,-0.001 -0.25829,0.0224 -0.37259,0.0775 -0.11429,0.0551 -0.21246,0.14288 -0.26613,0.25218 -0.0537,0.10929 -0.0601,0.24021 -0.008,0.34985 0.0541,0.1144 0.16513,0.19741 0.28422,0.25424 0.1191,0.0568 0.24825,0.0918 0.37207,0.13901 0.1183,0.0451 0.23194,0.10153 0.35347,0.1385 0.12153,0.037 0.25531,0.0534 0.37724,0.0165 0.0684,-0.0207 0.13092,-0.0574 0.18138,-0.10542 0.0505,-0.048 0.0889,-0.10722 0.11317,-0.17053 0.0485,-0.12662 0.0388,-0.26925 -0.0145,-0.39377 -0.0532,-0.12453 -0.14798,-0.23135 -0.26148,-0.31316 -0.11349,-0.0818 -0.2451,-0.13961 -0.38137,-0.18139 -0.12182,-0.0374 -0.24889,-0.0624 -0.37724,-0.0636 z m -2.15594,3.70107 c -0.0837,-0.002 -0.16832,0.0122 -0.24546,0.045 -0.0882,0.0374 -0.16587,0.10067 -0.21291,0.1819 -0.047,0.0812 -0.0615,0.18043 -0.032,0.26768 0.029,0.0861 0.0972,0.15491 0.17518,0.20464 0.078,0.0497 0.16628,0.083 0.2527,0.11782 0.10371,0.0418 0.20722,0.0871 0.31833,0.10594 0.0555,0.009 0.11286,0.0118 0.16898,0.004 0.0561,-0.008 0.11073,-0.0269 0.15761,-0.0584 0.0739,-0.0496 0.12456,-0.12888 0.14315,-0.21342 0.0186,-0.0845 0.006,-0.17358 -0.0284,-0.25218 -0.0348,-0.0786 -0.0913,-0.14743 -0.15865,-0.20257 -0.0674,-0.0551 -0.14573,-0.0971 -0.22738,-0.13023 -0.0875,-0.0355 -0.18021,-0.061 -0.27543,-0.0677 -0.0119,-8.4e-4 -0.0237,-0.002 -0.0357,-0.002 z m -22.15059,0.20515 c -0.49073,0.81054 -0.93033,1.6227 -1.32084,2.435 0.26195,0.26991 0.55995,0.50783 0.90123,0.66456 0.36455,0.16741 0.77637,0.24327 1.17202,0.17828 0.39566,-0.065 0.77221,-0.278 1.00253,-0.60668 0.11516,-0.16435 0.19264,-0.35557 0.22014,-0.55449 0.0275,-0.19892 0.004,-0.40521 -0.0713,-0.59118 -0.0986,-0.24198 -0.28131,-0.44156 -0.48524,-0.60461 -0.20393,-0.16306 -0.43089,-0.29408 -0.64957,-0.43667 -0.25392,-0.16556 -0.50556,-0.33619 -0.76895,-0.48421 z m -3.00291,6.85902 c -0.26134,0.9299 -0.46053,1.85114 -0.6134,2.76158 0.19304,0.19383 0.40767,0.36494 0.64595,0.4992 0.45173,0.25453 0.98634,0.37582 1.4981,0.29249 0.51176,-0.0833 0.99423,-0.38186 1.25781,-0.82838 0.13178,-0.22325 0.20783,-0.48028 0.2129,-0.73949 0.005,-0.2592 -0.0616,-0.51979 -0.19585,-0.74155 -0.19055,-0.31468 -0.50606,-0.53748 -0.84181,-0.68782 -0.33575,-0.15034 -0.69573,-0.2362 -1.04955,-0.33693 -0.30168,-0.0859 -0.60424,-0.18 -0.91415,-0.2191 z m -0.69815,7.49515 c -0.0906,-0.001 -0.18107,0.002 -0.2713,0.009 0.0243,1.4254 0.16425,2.79488 0.39842,4.09019 0.11418,0.0212 0.22832,0.0429 0.34365,0.0517 0.63198,0.0481 1.26654,-0.083 1.84227,-0.32712 0.5521,-0.23414 1.07142,-0.58844 1.36477,-1.10019 0.14668,-0.25587 0.23267,-0.54799 0.22996,-0.84387 -0.003,-0.29589 -0.097,-0.59497 -0.28112,-0.83406 -0.22671,-0.29436 -0.57384,-0.48244 -0.93173,-0.5948 -0.35788,-0.11235 -0.73191,-0.15733 -1.10122,-0.22065 -0.47084,-0.0807 -0.93845,-0.19219 -1.41438,-0.22273 -0.0595,-0.004 -0.11946,-0.006 -0.17932,-0.007 z m 4.25194,7.50806 c -0.0504,0.002 -0.10072,0.005 -0.1509,0.0103 -0.40142,0.039 -0.78832,0.16659 -1.18391,0.24546 -0.51207,0.1021 -1.03908,0.12226 -1.54667,0.24443 -0.0586,0.0141 -0.11524,0.0351 -0.17312,0.0522 0.4244,1.15197 0.91811,2.19783 1.45676,3.11557 0.0655,-0.0145 0.13197,-0.0254 0.19637,-0.0434 0.50842,-0.14221 0.98137,-0.38781 1.42472,-0.66973 0.47208,-0.30019 0.93078,-0.66183 1.17202,-1.156 0.12062,-0.24708 0.18223,-0.52396 0.15245,-0.79427 -0.0298,-0.2703 -0.15493,-0.53284 -0.36381,-0.71261 -0.14982,-0.12895 -0.3377,-0.21251 -0.53381,-0.25529 -0.14709,-0.0321 -0.29882,-0.042 -0.4501,-0.0367 z m 39.75726,1.21182 c -0.0233,0.0397 -0.0477,0.0792 -0.0625,0.12195 -0.0422,0.1217 -0.054,0.25011 -0.063,0.37724 -0.007,0.0964 -0.0122,0.19392 0.004,0.28887 0.0163,0.095 0.0562,0.18812 0.12867,0.25528 0.0599,0.0555 0.13997,0.0905 0.22376,0.10232 0.0838,0.0119 0.17097,0.001 0.25115,-0.0269 0.16035,-0.0559 0.28807,-0.17684 0.37827,-0.31367 0.0784,-0.11894 0.13262,-0.25298 0.14728,-0.3912 0.002,-0.0229 -0.003,-0.0457 -0.003,-0.0687 -0.30648,-0.15741 -0.64318,-0.27338 -1.00459,-0.3452 z m 2.73006,2.93263 c -0.0158,3.7e-4 -0.0316,0.002 -0.047,0.005 -0.0666,0.0123 -0.12495,0.0468 -0.1788,0.0847 -0.0539,0.0379 -0.10524,0.0803 -0.16433,0.11059 -0.0846,0.0434 -0.18128,0.0608 -0.27285,0.0899 -0.0458,0.0146 -0.0911,0.032 -0.13126,0.0568 -0.0402,0.0249 -0.0756,0.0572 -0.0992,0.0971 -0.021,0.0355 -0.0319,0.0766 -0.0331,0.11834 -0.001,0.0417 0.007,0.0841 0.0243,0.12351 0.0338,0.0788 0.0999,0.14477 0.17725,0.18759 0.0773,0.0428 0.16546,0.0636 0.2527,0.0682 0.0872,0.005 0.17385,-0.007 0.25787,-0.0248 0.12262,-0.0263 0.24236,-0.0679 0.34365,-0.13642 0.0609,-0.0412 0.10999,-0.0954 0.15089,-0.15503 -0.0179,-0.18716 -0.0409,-0.37115 -0.0775,-0.54725 -0.0216,-0.0161 -0.0373,-0.0394 -0.062,-0.0501 -0.0444,-0.0193 -0.093,-0.029 -0.14056,-0.0279 z m -38.94491,0.32608 c -0.24447,0.008 -0.48142,0.10272 -0.68212,0.24288 -0.20071,0.14016 -0.36807,0.32372 -0.51625,0.51883 -0.29636,0.39023 -0.52612,0.83695 -0.88574,1.16944 -0.1571,0.14525 -0.33255,0.26818 -0.50746,0.39171 0.20903,0.17031 0.41837,0.32817 0.62684,0.45888 0.46368,0.29077 0.93221,0.55348 1.41076,0.7891 0.23011,-0.12353 0.45584,-0.25438 0.66766,-0.40721 0.38129,-0.27509 0.7218,-0.62211 0.92243,-1.04799 0.10031,-0.21295 0.16431,-0.44394 0.17828,-0.67903 0.014,-0.23509 -0.0225,-0.47424 -0.11575,-0.6904 -0.0932,-0.21616 -0.24402,-0.40892 -0.43667,-0.54364 -0.19265,-0.13471 -0.42721,-0.20977 -0.66198,-0.20257 z m 5.03432,2.0376 c -0.0318,7.2e-4 -0.0635,0.003 -0.0951,0.008 -0.12614,0.0174 -0.24855,0.0644 -0.35192,0.13901 -0.10368,0.0749 -0.18662,0.17599 -0.25011,0.28732 -0.0635,0.11132 -0.10789,0.23294 -0.14211,0.35656 -0.0685,0.24725 -0.0974,0.50472 -0.17467,0.74931 -0.0856,0.27075 -0.22864,0.51933 -0.33279,0.78342 -0.0521,0.13204 -0.0947,0.26859 -0.11421,0.40927 -0.004,0.0309 -0.003,0.0623 -0.005,0.0935 0.6865,0.109 1.41073,0.17675 2.17661,0.2067 0.025,-0.0419 0.0591,-0.078 0.0811,-0.12144 0.14541,-0.28735 0.22757,-0.60316 0.27906,-0.92139 0.0409,-0.25255 0.0631,-0.51013 0.0382,-0.76481 -0.0248,-0.25468 -0.0984,-0.50732 -0.2372,-0.72192 -0.13879,-0.21459 -0.34601,-0.38892 -0.58963,-0.46353 -0.0913,-0.028 -0.18726,-0.0419 -0.28267,-0.0398 z m 4.58112,0.82476 c -0.0484,0.002 -0.0971,0.0117 -0.1447,0.0284 -0.12678,0.0447 -0.2452,0.14305 -0.32762,0.27854 -0.0824,0.13548 -0.12737,0.3075 -0.11783,0.4718 0.0108,0.18518 0.0863,0.34655 0.15865,0.50178 0.0723,0.15523 0.145,0.31932 0.15038,0.5054 0.003,0.10518 -0.018,0.21074 -0.0336,0.31626 0.26576,-0.0239 0.54225,-0.0553 0.81804,-0.0858 0.1026,-0.24552 0.18722,-0.50313 0.2129,-0.77256 0.0316,-0.33184 -0.021,-0.67699 -0.1788,-0.92449 -0.0789,-0.12375 -0.18319,-0.22123 -0.3023,-0.2744 -0.0745,-0.0332 -0.15443,-0.0488 -0.23513,-0.045 z" /><path
           id="path2203"
           style="color:#000000;fill:#000000;fill-opacity:0.2;stroke-linecap:square;stroke-linejoin:round;-inkscape-stroke:none"
           d="m 365.56528,111.03663 c -0.168,0.002 -0.3388,0.005 -0.51418,0.009 a 0.250025,0.250025 0 0 0 0.0114,0.0672 c 0.0229,0.0764 0.0272,0.0869 0.0155,0.0336 a 0.250025,0.250025 0 0 0 0,0.002 c 0.0247,0.11121 0.0187,0.25462 0.0155,0.42375 -0.003,0.16493 -6e-4,0.31023 -0.0212,0.43563 -0.0202,0.12318 -0.0652,0.22956 -0.12712,0.29456 -0.0426,0.0447 -0.10308,0.0812 -0.16589,0.0977 -0.0648,0.0164 -0.13852,0.0158 -0.20515,-0.002 -0.13172,-0.0352 -0.25451,-0.14742 -0.31626,-0.28474 -0.0632,-0.14066 -0.073,-0.32095 -0.0295,-0.48834 0.0346,-0.13306 0.10884,-0.26631 0.20878,-0.39688 l 0.12919,-0.16691 c -0.20701,0.008 -0.41893,0.0186 -0.63407,0.0305 -0.078,0.12342 -0.1484,0.25536 -0.1881,0.40824 -0.0687,0.26447 -0.0618,0.55529 0.0563,0.81804 0.11965,0.2661 0.34839,0.48342 0.64492,0.56276 0.14749,0.0394 0.30543,0.0424 0.45682,0.004 0.15279,-0.0393 0.2946,-0.11958 0.40618,-0.23668 0.1569,-0.16456 0.22678,-0.37022 0.25787,-0.55862 v -0.002 c 0.0302,-0.18579 0.0246,-0.35749 0.0274,-0.50746 0.003,-0.15416 0.0178,-0.3377 -0.0274,-0.54105 -7.5e-4,-0.003 -3.8e-4,3.3e-4 -10e-4,-0.003 z m 4.11758,0.5209 c -0.12871,0.0364 -0.26129,0.0771 -0.39584,0.13798 -0.18745,0.0848 -0.377,0.20616 -0.51573,0.39222 -0.0693,0.0931 -0.12314,0.2003 -0.154,0.3204 -0.0309,0.12025 -0.0372,0.25025 -0.008,0.37723 0.03,0.12887 0.0953,0.24983 0.19326,0.34727 0.0987,0.0983 0.22551,0.16718 0.36949,0.18965 0.14976,0.0233 0.29137,-0.006 0.41031,-0.0568 a 0.250025,0.250025 0 0 0 0,-5.2e-4 0.250025,0.250025 0 0 0 0,-5.2e-4 0.250025,0.250025 0 0 0 0,-5.1e-4 c 0.1183,-0.0513 0.21414,-0.12331 0.29456,-0.19379 0.16012,-0.14018 0.26755,-0.26863 0.37517,-0.33383 0.0795,-0.0482 0.21349,-0.0895 0.3669,-0.17983 0.0781,-0.0459 0.15765,-0.1047 0.22479,-0.19121 0.0427,-0.055 0.0713,-0.11911 0.092,-0.18603 -0.14557,-0.0941 -0.30089,-0.18343 -0.46302,-0.26872 l -0.01,0.11317 c -8.2e-4,0.0102 -0.005,0.0241 -0.014,0.0351 -0.0158,0.0204 -0.044,0.0449 -0.0837,0.0682 -0.082,0.0483 -0.21698,0.0886 -0.37104,0.1819 -0.2069,0.12536 -0.33222,0.28561 -0.44751,0.38654 -0.0573,0.0502 -0.11292,0.0875 -0.16382,0.10955 -0.0496,0.0209 -0.0996,0.0285 -0.13281,0.0233 -0.0321,-0.005 -0.0694,-0.023 -0.0956,-0.0491 -0.0266,-0.0265 -0.0472,-0.0656 -0.0568,-0.10542 v -0.002 c -0.009,-0.0421 -0.008,-0.0912 0.004,-0.1385 0.0124,-0.0481 0.0373,-0.0991 0.0724,-0.14624 0.0702,-0.0942 0.18308,-0.17549 0.31833,-0.23668 0.13653,-0.0618 0.29671,-0.10571 0.4687,-0.15245 0.0313,-0.009 0.0901,-0.014 0.17363,-0.031 l 0.24443,-0.0486 -0.0124,-0.062 c -0.21497,-0.10796 -0.44104,-0.20885 -0.68368,-0.29869 z m -10.70167,0.14108 c -0.17172,0.0332 -0.34172,0.0624 -0.51418,0.0987 l 0.0367,0.0677 c 0.0201,0.037 0.0258,0.0473 0.0176,0.0294 a 0.250025,0.250025 0 0 0 0.002,0.004 c 0.0815,0.16768 0.12062,0.37705 0.15658,0.60719 0.0311,0.19794 0.0551,0.37596 0.0367,0.53124 -0.009,0.0768 -0.0286,0.14852 -0.0584,0.20929 -0.0295,0.0603 -0.0716,0.11138 -0.1173,0.14624 -0.0696,0.0531 -0.17495,0.0845 -0.27699,0.078 -0.10404,-0.006 -0.21383,-0.0484 -0.30696,-0.11524 -0.18844,-0.13515 -0.31628,-0.3742 -0.39067,-0.63872 -0.0421,-0.14986 -0.0657,-0.29709 -0.0641,-0.43925 6e-4,-0.0442 0.007,-0.0973 0.0176,-0.16019 l 0.0181,-0.10439 c -0.17441,0.0423 -0.34807,0.0835 -0.52245,0.12919 -0.005,0.0421 -0.0128,0.0796 -0.0134,0.12764 a 0.250025,0.250025 0 0 0 0,0.002 c -0.002,0.20314 0.0307,0.39657 0.0822,0.57981 0.0926,0.32926 0.25921,0.6806 0.57981,0.91054 0.1614,0.11579 0.35702,0.19351 0.56844,0.2067 0.21342,0.0135 0.43205,-0.0409 0.61133,-0.17776 0.11688,-0.0891 0.20425,-0.20286 0.26355,-0.32401 0.0591,-0.12063 0.0908,-0.24809 0.10542,-0.37104 0.0288,-0.2442 -0.008,-0.46858 -0.0388,-0.66818 -0.0354,-0.22678 -0.0754,-0.47981 -0.19275,-0.72915 z m -6.70657,2.21898 c -0.15038,0.0771 -0.30278,0.15048 -0.45062,0.23151 l 0.0336,0.0403 c 0.15459,0.18543 0.27794,0.41243 0.39843,0.65423 0.11821,0.23722 0.22588,0.45705 0.26923,0.67386 a 0.250025,0.250025 0 0 0 0,0.002 c 0.0216,0.10756 0.027,0.21367 0.0139,0.31265 -0.013,0.0981 -0.0449,0.19068 -0.094,0.26355 -0.0744,0.11037 -0.20512,0.197 -0.34571,0.23254 -0.14279,0.0361 -0.30515,0.0257 -0.45682,-0.0253 -0.30641,-0.10304 -0.57128,-0.36767 -0.77515,-0.68006 -0.11428,-0.17511 -0.20718,-0.35893 -0.26561,-0.54674 l -0.002,-0.004 c 0.002,0.005 -8e-5,-0.0107 -0.0119,-0.0584 l -0.0232,-0.0971 c -0.14958,0.1001 -0.29214,0.20864 -0.4377,0.31368 0.0759,0.24229 0.19043,0.46381 0.32246,0.6661 0.23981,0.36747 0.57118,0.7237 1.03301,0.87902 0.23245,0.0782 0.49079,0.10033 0.74053,0.0372 0.25191,-0.0637 0.48449,-0.21205 0.63665,-0.4377 0.0989,-0.14663 0.15384,-0.31184 0.1757,-0.47646 0.0217,-0.16377 0.011,-0.32604 -0.0196,-0.47852 -0.0606,-0.30327 -0.19431,-0.56301 -0.31264,-0.80047 -0.11729,-0.23539 -0.25094,-0.47777 -0.4284,-0.70177 z m 18.57458,1.05679 c -0.1599,-9.4e-4 -0.32824,0.0266 -0.48421,0.1018 -0.1574,0.0759 -0.29736,0.19687 -0.38086,0.3669 -0.0851,0.17316 -0.0982,0.38195 -0.01,0.56844 0.0906,0.19165 0.25258,0.30153 0.40256,0.37311 0.14647,0.0699 0.28249,0.10551 0.39067,0.14676 0.10323,0.0394 0.22119,0.0992 0.36897,0.14418 0.15074,0.0459 0.33337,0.0736 0.52348,0.016 0.10638,-0.0322 0.20203,-0.0891 0.28112,-0.16434 0.079,-0.0751 0.13647,-0.16453 0.17363,-0.26148 0.0749,-0.19558 0.0586,-0.40446 -0.0176,-0.58239 -0.0751,-0.17568 -0.20202,-0.3145 -0.34571,-0.41806 -0.14254,-0.10274 -0.29776,-0.16903 -0.45269,-0.21653 -0.13841,-0.0425 -0.28999,-0.0729 -0.44906,-0.0744 z m -0.004,0.50023 c 0.0974,9.1e-4 0.19982,0.0205 0.30489,0.0527 0.11761,0.0361 0.22407,0.0838 0.30851,0.14469 0.0833,0.0601 0.14642,0.13539 0.17777,0.20877 0.0304,0.0711 0.0335,0.1475 0.0114,0.20516 -0.0114,0.0297 -0.0308,0.0592 -0.0527,0.0801 -0.0218,0.0208 -0.0497,0.0378 -0.0801,0.047 -0.0537,0.0163 -0.13971,0.0121 -0.23203,-0.016 -0.0953,-0.029 -0.20459,-0.082 -0.33796,-0.13281 -0.13946,-0.0532 -0.26174,-0.0891 -0.35347,-0.13281 -0.0882,-0.0421 -0.14883,-0.0972 -0.1664,-0.13435 -0.0156,-0.0328 -0.0142,-0.0874 0.008,-0.13281 0.0239,-0.0486 0.0792,-0.10262 0.15038,-0.13694 0.0725,-0.0349 0.16483,-0.0535 0.26148,-0.0527 z m -2.15439,3.20083 v 5.2e-4 c -0.11421,-0.002 -0.23168,0.0165 -0.34365,0.0641 -0.13293,0.0564 -0.25312,0.15154 -0.33176,0.28732 -0.0801,0.13834 -0.10702,0.30704 -0.0512,0.47232 0.054,0.16028 0.16709,0.266 0.2775,0.33642 0.10741,0.0684 0.21008,0.10508 0.29301,0.13849 0.0991,0.04 0.21797,0.0953 0.36897,0.12092 a 0.250025,0.250025 0 0 0 0.002,0 c 0.0743,0.0121 0.15671,0.0161 0.24392,0.004 0.0881,-0.0126 0.17892,-0.0418 0.262,-0.0977 0.13235,-0.0888 0.21603,-0.22186 0.24804,-0.36742 0.0316,-0.14368 0.0103,-0.28457 -0.0429,-0.40618 a 0.250025,0.250025 0 0 0 0,-5.2e-4 0.250025,0.250025 0 0 0 0,-5.1e-4 0.250025,0.250025 0 0 0 0,-5.2e-4 0.250025,0.250025 0 0 0 0,-5.2e-4 c -0.0535,-0.12079 -0.13518,-0.21822 -0.22841,-0.29455 -0.0927,-0.0758 -0.19475,-0.12809 -0.293,-0.16795 -0.10586,-0.043 -0.22373,-0.0773 -0.35192,-0.0863 -0.007,-4.6e-4 -0.0235,-0.002 -0.0465,-0.002 -0.003,-5e-5 -0.003,0 -0.006,0 z m -22.02191,0.23978 c -0.0883,0.14303 -0.1718,0.28627 -0.25683,0.42943 l 0.006,0.003 c 0.25114,0.14113 0.49906,0.30925 0.75551,0.47646 0.22628,0.14755 0.44462,0.27433 0.6289,0.42168 0.1831,0.1464 0.33431,0.31733 0.41031,0.50385 0.058,0.14313 0.0764,0.30646 0.0548,0.46302 -0.0217,0.15735 -0.0846,0.31258 -0.17777,0.44545 -0.18596,0.26538 -0.5037,0.44889 -0.83819,0.50384 -0.33756,0.0555 -0.70164,-0.009 -1.02733,-0.15813 -0.30423,-0.13972 -0.57869,-0.35881 -0.82578,-0.6134 l -0.0646,-0.0656 c -0.0781,0.1585 -0.15093,0.31697 -0.22531,0.47543 0.26228,0.2597 0.55908,0.49611 0.90899,0.6568 0.40341,0.18526 0.86247,0.27142 1.3162,0.19689 0.45684,-0.0751 0.89166,-0.31649 1.16633,-0.70848 0.13722,-0.19582 0.2303,-0.42407 0.26355,-0.66456 0.0334,-0.24128 0.005,-0.48949 -0.0879,-0.7183 -0.1212,-0.29744 -0.33591,-0.52775 -0.56068,-0.70745 -0.22357,-0.17877 -0.45865,-0.31144 -0.66973,-0.44907 -0.24975,-0.16284 -0.50261,-0.33677 -0.77618,-0.49093 z m 22.01209,0.25632 a 0.250025,0.250025 0 0 0 0.01,0.004 c -0.004,0 9.7e-4,8.6e-4 0.0176,0.002 0.0623,0.004 0.13033,0.0206 0.19947,0.0486 0.0651,0.0264 0.1217,0.0597 0.16382,0.0941 0.0415,0.034 0.0718,0.0727 0.0879,0.10903 0.0156,0.0356 0.0175,0.0728 0.0119,0.0982 -0.005,0.0235 -0.0218,0.048 -0.0372,0.0584 -0.0103,0.007 -0.0298,0.016 -0.0527,0.0196 -0.0245,0.003 -0.0577,0.002 -0.0935,-0.004 h -0.002 c -0.071,-0.0123 -0.15596,-0.0486 -0.26355,-0.092 -0.0899,-0.0362 -0.16432,-0.0647 -0.2129,-0.0956 -0.0455,-0.029 -0.0682,-0.0625 -0.0724,-0.0744 -0.003,-0.009 -0.002,-0.0379 0.0119,-0.062 0.0154,-0.0267 0.0501,-0.058 0.0935,-0.0765 0.0405,-0.0172 0.0911,-0.0265 0.14263,-0.0253 z m -25.07237,6.57892 c -0.047,0.16155 -0.0908,0.3226 -0.13436,0.4837 l 0.031,0.004 c 0.28054,0.0354 0.57137,0.12383 0.87695,0.21084 0.36079,0.10271 0.70864,0.1864 1.01596,0.32401 0.30498,0.13656 0.57588,0.33534 0.73018,0.59015 0.10828,0.17887 0.16431,0.39402 0.1602,0.60719 -0.004,0.21357 -0.0673,0.43037 -0.17777,0.61754 -0.22049,0.37352 -0.64131,0.63692 -1.08417,0.709 -0.44652,0.0727 -0.92594,-0.0343 -1.33377,-0.26407 -0.21507,-0.12118 -0.41212,-0.27859 -0.59169,-0.45889 l -0.12764,-0.12764 c -0.036,0.19969 -0.0656,0.39781 -0.0966,0.59635 0.17389,0.15939 0.35991,0.30744 0.56999,0.42581 0.49563,0.27927 1.08493,0.41436 1.66192,0.3204 0.58067,-0.0945 1.12528,-0.42772 1.43195,-0.94723 0.15307,-0.25933 0.24209,-0.5566 0.24805,-0.86145 0.006,-0.30523 -0.0723,-0.61231 -0.23255,-0.87695 -0.2268,-0.37455 -0.58692,-0.62084 -0.95343,-0.78496 -0.36418,-0.16307 -0.7368,-0.2511 -1.08365,-0.34985 -0.28539,-0.0813 -0.58735,-0.1727 -0.91054,-0.21808 z m -0.76739,7.48378 c -0.0928,-9.4e-4 -0.18511,0.003 -0.27751,0.01 0.001,0.16702 0.004,0.33367 0.008,0.4992 l 0.0155,-0.001 c 0.0829,-0.006 0.1648,-0.009 0.24805,-0.008 0.0571,9.6e-4 0.11203,0.004 0.16588,0.008 0.44757,0.0287 0.90709,0.13659 1.38855,0.21911 0.37759,0.0647 0.74009,0.10976 1.06867,0.21291 0.3259,0.10231 0.62588,0.27213 0.80873,0.50953 0.14772,0.19183 0.228,0.43902 0.23048,0.68368 0.002,0.24594 -0.0705,0.49554 -0.1974,0.71675 -0.2548,0.4445 -0.72592,0.77351 -1.24644,0.99425 -0.54457,0.23091 -1.13936,0.35304 -1.72444,0.30851 -0.0967,-0.007 -0.20345,-0.0278 -0.31833,-0.0491 l -0.093,-0.0171 c 0.0299,0.17637 0.0628,0.34985 0.0961,0.52348 0.0882,0.0159 0.17626,0.0332 0.27647,0.0408 0.67888,0.0517 1.35215,-0.0884 1.95905,-0.34571 0.58368,-0.24753 1.15226,-0.62816 1.48415,-1.20716 0.16655,-0.29052 0.26671,-0.62467 0.26355,-0.97049 -0.004,-0.34712 -0.11331,-0.69602 -0.33383,-0.98237 -0.27057,-0.35132 -0.66483,-0.55972 -1.05471,-0.68212 -0.38717,-0.12155 -0.77379,-0.16651 -1.13482,-0.22841 -0.46022,-0.0789 -0.9349,-0.19399 -1.43919,-0.22635 -0.0652,-0.004 -0.12908,-0.007 -0.19172,-0.008 l 0.002,0.002 a 0.250025,0.250025 0 0 0 -0.004,-0.002 z m 4.24056,7.50756 v 5.1e-4 c -0.0537,0.002 -0.1102,0.006 -0.16794,0.0114 -0.43745,0.0428 -0.83221,0.17536 -1.20717,0.25012 -0.486,0.0969 -1.01515,0.11606 -1.55494,0.24598 -0.0779,0.0187 -0.13848,0.0409 -0.18552,0.0548 l -0.015,0.005 c 0.0562,0.15794 0.11125,0.31723 0.17001,0.47129 0.0598,-0.0182 0.10997,-0.0354 0.14573,-0.0439 0.4754,-0.11442 0.99923,-0.13506 1.53737,-0.24236 0.41564,-0.0829 0.79557,-0.20695 1.16014,-0.24237 a 0.250025,0.250025 0 0 0 0.002,0 c 0.042,-0.004 0.0865,-0.008 0.1328,-0.01 6.7e-4,-3e-5 0.001,2e-5 0.002,0 0.13384,-0.005 0.26459,0.005 0.38654,0.031 0.16237,0.0354 0.31178,0.10517 0.42375,0.20154 0.15508,0.13347 0.25619,0.33829 0.27957,0.55035 0.0236,0.21453 -0.0262,0.44522 -0.12919,0.65629 -0.20753,0.42511 -0.62487,0.76397 -1.08211,1.05472 -0.43089,0.274 -0.8823,0.50786 -1.35754,0.64079 -0.0466,0.013 -0.10891,0.0228 -0.18345,0.0393 l -0.0765,0.0171 c 0.0867,0.15315 0.17299,0.30743 0.262,0.45372 0.0424,-0.008 0.0811,-0.015 0.13281,-0.0294 0.5416,-0.15149 1.03454,-0.40934 1.49035,-0.69918 0.48691,-0.30962 0.98853,-0.69303 1.26348,-1.25626 0.1382,-0.28308 0.21162,-0.60512 0.1757,-0.93121 -0.0362,-0.32854 -0.18638,-0.64933 -0.44906,-0.8754 -0.18767,-0.16152 -0.41248,-0.26043 -0.64234,-0.31057 -0.17162,-0.0375 -0.34566,-0.0488 -0.51367,-0.0429 z m 39.50819,1.42265 c -0.005,0.0128 -0.0232,0.0435 -0.0258,0.0486 a 0.250025,0.250025 0 0 0 -0.014,0.031 c -0.0553,0.1595 -0.0667,0.31066 -0.076,0.44132 -0.007,0.0996 -0.0169,0.21818 0.006,0.34985 0.0232,0.13518 0.0818,0.28199 0.20515,0.39636 0.10293,0.0954 0.2301,0.1476 0.35967,0.16588 0.12873,0.0183 0.25269,0.003 0.3669,-0.0372 a 0.250025,0.250025 0 0 0 0.002,-0.002 c 0.22722,-0.0792 0.39121,-0.24152 0.50384,-0.41238 0.0886,-0.13449 0.15098,-0.28973 0.17674,-0.45734 -0.15527,-0.0958 -0.31889,-0.18008 -0.49093,-0.25269 v 0.1142 c 0,0.0543 0.002,0.0615 0.004,0.0429 -0.01,0.0903 -0.0478,0.18902 -0.10749,0.27957 -0.0678,0.1028 -0.15819,0.18239 -0.25166,0.21498 -0.0461,0.0161 -0.0939,0.0211 -0.13281,0.0155 -0.038,-0.005 -0.0731,-0.0236 -0.0899,-0.0393 -0.0215,-0.0199 -0.0412,-0.0584 -0.0506,-0.11318 -0.01,-0.0582 -0.009,-0.13524 -0.002,-0.22841 a 0.250025,0.250025 0 0 0 0,-5.1e-4 0.250025,0.250025 0 0 0 0,-5.2e-4 0.250025,0.250025 0 0 0 0,-5.2e-4 0.250025,0.250025 0 0 0 0,-5.1e-4 c 0.009,-0.12134 0.0226,-0.2233 0.0506,-0.30644 0.0139,-0.0288 0.0302,-0.0643 0.0274,-0.0605 l 0.0636,-0.0863 c -0.16826,-0.0454 -0.34377,-0.0784 -0.524,-0.10284 z m 2.98173,2.72231 c -0.0291,6.8e-4 -0.0576,0.004 -0.0879,0.01 -0.12194,0.023 -0.21085,0.0817 -0.27544,0.12713 -0.0646,0.0454 -0.10775,0.0781 -0.13487,0.092 -0.0399,0.0205 -0.12153,0.0382 -0.2341,0.0739 -0.0551,0.0176 -0.12039,0.0407 -0.18758,0.0822 -0.0666,0.0413 -0.13212,0.10015 -0.18139,0.18345 -0.0448,0.0756 -0.0663,0.15773 -0.0687,0.23823 -0.002,0.0777 0.0126,0.15661 0.045,0.23048 0.0605,0.14011 0.16592,0.2409 0.28525,0.30696 0.11774,0.0652 0.24325,0.0914 0.36122,0.0977 0.11863,0.007 0.2272,-0.009 0.32246,-0.0295 0.14284,-0.0306 0.29337,-0.0802 0.4315,-0.17363 0.0128,-0.009 0.0217,-0.0197 0.0336,-0.0289 -0.0142,-0.41826 -0.0675,-0.81536 -0.1695,-1.18184 -0.0464,-0.0107 -0.091,-0.029 -0.13952,-0.0279 z m -38.94698,0.32608 c -0.30366,0.01 -0.58341,0.1261 -0.81649,0.28887 -0.23123,0.16148 -0.41523,0.36541 -0.57257,0.57258 -0.3143,0.41385 -0.53862,0.84361 -0.85525,1.13636 -0.1406,0.12999 -0.30724,0.24767 -0.48266,0.37156 l -0.0548,0.0387 c 0.13269,0.11602 0.26549,0.22723 0.39842,0.32763 0.15808,-0.11183 0.32107,-0.22636 0.47698,-0.37052 0.4026,-0.37223 0.63727,-0.83435 0.9157,-1.20096 0.13902,-0.18305 0.29077,-0.34624 0.46096,-0.46509 0.16779,-0.11718 0.36044,-0.19248 0.54518,-0.19895 0.17646,-0.005 0.36131,0.053 0.5116,0.15813 0.15109,0.10566 0.27563,0.26145 0.3514,0.43718 0.0761,0.17637 0.10799,0.37688 0.0961,0.57619 -0.0119,0.19963 -0.0685,0.40109 -0.15658,0.58808 -0.17647,0.37459 -0.48415,0.69333 -0.84181,0.95137 -0.19838,0.14313 -0.41495,0.2692 -0.64027,0.39015 l -0.14883,0.0796 c 0.18076,0.0936 0.36306,0.18359 0.54674,0.26924 0.18122,-0.10114 0.36179,-0.20756 0.53536,-0.3328 0.40492,-0.29214 0.77722,-0.66746 1.00201,-1.14463 0.11254,-0.23892 0.18494,-0.50098 0.20102,-0.77153 0.0161,-0.27087 -0.024,-0.54659 -0.13436,-0.80254 -0.11063,-0.25658 -0.28926,-0.48682 -0.52348,-0.6506 -0.235,-0.16433 -0.51979,-0.25704 -0.81287,-0.24805 a 0.250025,0.250025 0 0 0 -0.002,0 z m 38.95886,0.17363 c 0.003,-6e-5 0.007,0.002 0.0109,0.003 0.009,0.006 0.0144,0.01 0.0377,0.0274 l 0.10593,0.0801 -0.0863,0.12454 c -0.0281,0.041 -0.0554,0.0708 -0.0837,0.0899 -0.0644,0.0436 -0.1534,0.0777 -0.2558,0.0997 -0.0722,0.0153 -0.13679,0.0228 -0.19172,0.0196 a 0.250025,0.250025 0 0 0 -0.002,0 c -0.0565,-0.003 -0.10731,-0.0168 -0.14417,-0.0372 -0.035,-0.0194 -0.0615,-0.0519 -0.0687,-0.0687 a 0.250025,0.250025 0 0 0 0,-5.2e-4 0.250025,0.250025 0 0 0 0,-5.2e-4 0.250025,0.250025 0 0 0 0,-5.1e-4 c -0.002,-0.004 -0.004,-0.0108 -0.004,-0.016 -2.6e-4,6.7e-4 0.002,-0.002 0.0134,-0.01 0.0131,-0.008 0.04,-0.0194 0.0765,-0.031 0.0706,-0.0224 0.1813,-0.0392 0.31057,-0.10542 0.0911,-0.0467 0.15004,-0.0988 0.19327,-0.12919 0.0427,-0.0301 0.0716,-0.041 0.0816,-0.0429 a 0.250025,0.250025 0 0 0 0.002,0 c 5.8e-4,-1.1e-4 10e-4,-0.002 0.004,-0.002 z m -33.92196,1.86552 c -0.0382,8.7e-4 -0.0797,0.003 -0.12299,0.01 -0.16482,0.0227 -0.32618,0.0832 -0.46509,0.18345 -0.13893,0.10037 -0.24223,0.22921 -0.31987,0.36536 -0.0775,0.13583 -0.1286,0.27788 -0.1664,0.41444 -0.0756,0.27285 -0.10409,0.52846 -0.17157,0.74207 -0.0747,0.23636 -0.21342,0.47838 -0.32659,0.76533 -0.0566,0.1435 -0.10745,0.29923 -0.13074,0.46716 a 0.250025,0.250025 0 0 0 0,0.002 c -0.006,0.0457 -0.004,0.0678 -0.005,0.0868 0.162,0.0283 0.32956,0.0506 0.49557,0.0744 l 10e-4,-0.0186 c 0.003,-0.046 0.003,-0.0708 0.004,-0.076 v -0.002 c 0.0159,-0.11289 0.0524,-0.22937 0.0997,-0.34933 0.0951,-0.24123 0.24149,-0.49378 0.33796,-0.79892 0.0871,-0.27557 0.11636,-0.53643 0.17777,-0.75809 0.0306,-0.11067 0.0673,-0.21395 0.11679,-0.30076 0.0493,-0.0865 0.1114,-0.15726 0.17983,-0.2067 0.0678,-0.049 0.15283,-0.084 0.24029,-0.0961 a 0.250025,0.250025 0 0 0 0.004,0 c 0.0172,-0.003 0.0378,-0.005 0.0605,-0.006 a 0.250025,0.250025 0 0 0 0.002,0.002 c 0.0675,-0.001 0.13657,0.007 0.20309,0.0274 0.17732,0.0543 0.3425,0.19007 0.4532,0.36122 0.11209,0.17331 0.17723,0.38619 0.19895,0.60926 0.0219,0.22411 0.002,0.46109 -0.0372,0.70125 -0.049,0.30258 -0.12658,0.59214 -0.2558,0.8475 -1.8e-4,3.5e-4 -0.0285,0.034 -0.0724,0.10748 l -0.0682,0.11576 c 0.18948,0.01 0.37957,0.0193 0.57464,0.0243 0.006,-0.011 0.007,-0.008 0.0134,-0.0207 0.1616,-0.31934 0.24829,-0.66038 0.30231,-0.99426 0.0429,-0.26494 0.0671,-0.54312 0.0393,-0.82837 -0.0279,-0.28629 -0.10993,-0.57765 -0.27544,-0.83354 -0.16688,-0.25803 -0.41665,-0.47197 -0.72657,-0.56689 -0.11607,-0.0356 -0.23786,-0.0533 -0.36122,-0.0506 z m 4.57595,0.82424 c -0.0748,0.003 -0.14719,0.0186 -0.21652,0.0429 -0.18919,0.0667 -0.34913,0.2025 -0.45889,0.38293 -0.11024,0.18125 -0.16521,0.39724 -0.15245,0.61701 0.0143,0.24436 0.10914,0.43877 0.18139,0.59377 0.0704,0.15139 0.12351,0.28143 0.12712,0.40617 0.002,0.0672 -0.0142,0.15806 -0.031,0.27182 l -0.008,0.0563 c 0.16808,-0.0139 0.3364,-0.0278 0.50849,-0.0444 0.0144,-0.0867 0.0344,-0.17868 0.031,-0.29714 -0.007,-0.24687 -0.10046,-0.44744 -0.17415,-0.60565 -0.0725,-0.15546 -0.12908,-0.2838 -0.13643,-0.4098 -0.006,-0.10822 0.0277,-0.23695 0.0817,-0.32659 0.0551,-0.0905 0.13304,-0.15093 0.19741,-0.17363 0.0259,-0.009 0.0503,-0.0131 0.0723,-0.014 a 0.250025,0.250025 0 0 0 0.002,0 c 0.0408,-0.002 0.0805,0.005 0.12092,0.0238 0.0648,0.0289 0.13606,0.0896 0.19327,0.17931 0.1147,0.17989 0.16864,0.47842 0.14108,0.76791 -0.0222,0.23278 -0.0978,0.46596 -0.19534,0.69919 l -0.0527,0.1266 c 0.18537,-0.0192 0.36902,-0.0376 0.55914,-0.0599 0.0865,-0.22382 0.16195,-0.46112 0.18655,-0.71934 0.0356,-0.37419 -0.0156,-0.76649 -0.21652,-1.08158 -0.1006,-0.15777 -0.23901,-0.2921 -0.41238,-0.36949 -0.10863,-0.0484 -0.2267,-0.0719 -0.34726,-0.0661 z" /><path
           id="path2204"
           style="color:#000000;fill:#000000;stroke-linecap:square;stroke-linejoin:round;-inkscape-stroke:none"
           d="m 365.56529,111.03663 c -0.0861,10e-4 -0.17573,0.003 -0.26355,0.005 v 5.2e-4 c 0.005,0.018 0.0172,0.0334 0.0212,0.0517 0.035,0.15728 0.0247,0.32102 0.0217,0.48266 -0.003,0.15774 7.9e-4,0.31631 -0.0248,0.47232 -0.0256,0.15601 -0.0831,0.31183 -0.19275,0.42685 -0.0773,0.0811 -0.17871,0.13911 -0.2868,0.16691 -0.10808,0.0274 -0.22264,0.0255 -0.3297,-0.003 -0.21413,-0.0573 -0.39092,-0.22204 -0.48162,-0.42375 -0.0907,-0.20171 -0.099,-0.43674 -0.0429,-0.65267 0.0462,-0.17791 0.14083,-0.33892 0.25322,-0.48576 -0.10245,0.005 -0.2028,0.009 -0.30696,0.015 -0.078,0.12342 -0.1484,0.25536 -0.1881,0.40824 -0.0687,0.26447 -0.0618,0.55529 0.0563,0.81804 0.11965,0.2661 0.34839,0.48342 0.64492,0.56276 0.14749,0.0394 0.30543,0.042 0.45682,0.004 0.15279,-0.0393 0.29459,-0.11958 0.40617,-0.23668 0.1569,-0.16456 0.22678,-0.37022 0.25787,-0.55862 v -0.002 c 0.0302,-0.18579 0.0246,-0.3575 0.0274,-0.50747 0.003,-0.15416 0.0178,-0.3377 -0.0274,-0.54105 -6.2e-4,-0.002 -7.5e-4,-8.9e-4 -10e-4,-0.002 z m -0.26355,0.005 c -0.0835,0.001 -0.16515,0.002 -0.25063,0.004 a 0.250025,0.250025 0 0 0 5.1e-4,0.004 c 0.0817,-0.002 0.16984,-0.007 0.25012,-0.008 z m -0.73536,0.0202 c -0.10173,0.004 -0.2077,0.01 -0.31161,0.015 0.10651,-0.005 0.20383,-0.006 0.30799,-0.0103 z m 5.11648,0.49609 c -0.12871,0.0364 -0.26129,0.0771 -0.39584,0.13798 -0.18745,0.0848 -0.377,0.20616 -0.51573,0.39222 -0.0693,0.0931 -0.12313,0.2003 -0.15399,0.3204 -0.0309,0.12025 -0.0369,0.25025 -0.008,0.37723 0.03,0.12887 0.0948,0.24983 0.19275,0.34727 0.0987,0.0983 0.2255,0.16718 0.36948,0.18965 0.14976,0.0233 0.29138,-0.006 0.41032,-0.0568 a 0.250025,0.250025 0 0 0 0,-5.2e-4 0.250025,0.250025 0 0 0 0,-5.2e-4 0.250025,0.250025 0 0 0 0,-5.1e-4 c 0.1183,-0.0513 0.21465,-0.12331 0.29507,-0.19379 0.16012,-0.14018 0.26703,-0.26863 0.37465,-0.33383 0.0795,-0.0482 0.2135,-0.0895 0.3669,-0.17983 0.0781,-0.0459 0.15766,-0.1047 0.2248,-0.19121 0.0427,-0.055 0.0718,-0.11911 0.0925,-0.18603 -0.0708,-0.0458 -0.1502,-0.0871 -0.22531,-0.13074 -0.006,0.0587 -0.0275,0.11571 -0.0641,0.16278 -0.0415,0.0534 -0.0961,0.0961 -0.15503,0.13074 -0.11771,0.0693 -0.25218,0.10903 -0.36897,0.17983 -0.15726,0.0953 -0.27364,0.24066 -0.41134,0.36122 -0.0688,0.0603 -0.14433,0.11523 -0.22893,0.15193 -0.0846,0.0363 -0.1796,0.0546 -0.2713,0.0403 -0.088,-0.0137 -0.17005,-0.0572 -0.23255,-0.11937 -0.0625,-0.0622 -0.10535,-0.14216 -0.12505,-0.22686 -0.0194,-0.0847 -0.0164,-0.17377 0.005,-0.25787 0.0216,-0.0841 0.062,-0.16348 0.1142,-0.23358 0.10448,-0.14013 0.25516,-0.24171 0.41651,-0.31471 0.16135,-0.073 0.33395,-0.11928 0.5054,-0.16588 0.0562,-0.0153 0.11444,-0.0209 0.17208,-0.0315 -0.12681,-0.0567 -0.24766,-0.11748 -0.38396,-0.16795 z m -10.70167,0.14108 c -0.0858,0.0166 -0.17141,0.0331 -0.25683,0.0491 0.008,0.0143 0.018,0.0276 0.0248,0.0424 0.10264,0.21129 0.14063,0.44588 0.17673,0.67696 0.0312,0.19877 0.0618,0.40022 0.0382,0.59996 -0.0119,0.0999 -0.0378,0.19869 -0.0822,0.28939 -0.0444,0.0907 -0.10783,0.17364 -0.18913,0.23564 -0.12442,0.0949 -0.28721,0.13764 -0.44494,0.12764 -0.15773,-0.01 -0.30992,-0.0704 -0.43718,-0.16174 -0.25452,-0.18254 -0.40174,-0.47619 -0.48524,-0.77308 -0.0468,-0.16655 -0.0764,-0.33843 -0.0744,-0.51108 8.8e-4,-0.0655 0.0107,-0.1306 0.0217,-0.19534 -0.0857,0.021 -0.17146,0.0411 -0.25735,0.0636 -0.005,0.0421 -0.0128,0.0796 -0.0134,0.12764 a 0.250025,0.250025 0 0 0 0,0.002 c -0.002,0.20314 0.0307,0.39657 0.0822,0.57981 0.0926,0.32926 0.25921,0.6806 0.57981,0.91054 0.1614,0.11579 0.35702,0.19352 0.56844,0.20671 0.21342,0.0135 0.43205,-0.0409 0.61133,-0.17777 0.11688,-0.0891 0.20425,-0.20286 0.26355,-0.32401 0.0591,-0.12063 0.0908,-0.24809 0.10542,-0.37104 0.0288,-0.2442 -0.008,-0.46857 -0.0387,-0.66817 -0.0354,-0.22664 -0.0756,-0.47945 -0.19276,-0.72864 z m -0.29714,0.0568 c -0.0722,0.0136 -0.14423,0.0265 -0.21704,0.0419 l 0.004,0.007 c 0.071,-0.0149 0.14247,-0.0342 0.21342,-0.0486 z m 11.54245,0.0398 c 0.049,0.0231 0.0944,0.0484 0.14211,0.0724 l -0.002,-0.0114 c -0.044,-0.0221 -0.0951,-0.0395 -0.14004,-0.061 z m 0.2465,0.11524 -0.001,0.01 c 0.0473,0.0249 0.0983,0.0477 0.14418,0.0734 -0.0487,-0.0272 -0.093,-0.0568 -0.14314,-0.0832 z m -12.93513,0.10232 c -0.0271,0.007 -0.0541,0.0136 -0.0811,0.0202 0.0269,-0.007 0.0537,-0.0121 0.0806,-0.0186 z m -5.26325,1.90479 c -0.0745,0.0382 -0.14854,0.077 -0.22324,0.11473 0.17454,0.21027 0.30656,0.45362 0.42892,0.69918 0.11827,0.23734 0.2379,0.4779 0.2899,0.73794 0.0261,0.13002 0.0345,0.26447 0.0171,0.39584 -0.0174,0.13137 -0.0614,0.25974 -0.1354,0.36949 -0.1133,0.16801 -0.29466,0.28578 -0.49092,0.33538 -0.19626,0.0496 -0.40636,0.0336 -0.59842,-0.031 -0.38412,-0.12918 -0.68249,-0.43987 -0.90433,-0.7798 -0.12444,-0.19068 -0.23004,-0.39523 -0.29714,-0.61288 -0.007,-0.0239 -0.009,-0.0492 -0.015,-0.0734 -0.0726,0.0528 -0.14623,0.10451 -0.21911,0.1571 0.0759,0.24229 0.19043,0.46382 0.32246,0.6661 0.23981,0.36747 0.57119,0.7237 1.03302,0.87902 0.23244,0.0782 0.49078,0.10034 0.74052,0.0372 0.25191,-0.0637 0.48449,-0.21205 0.63665,-0.4377 0.0989,-0.14663 0.15384,-0.31184 0.1757,-0.47646 0.0217,-0.16377 0.011,-0.32604 -0.0196,-0.47852 -0.0606,-0.30327 -0.19431,-0.56301 -0.31264,-0.80047 -0.11729,-0.23539 -0.25094,-0.47777 -0.4284,-0.70177 z m -0.3085,0.15865 c -0.0473,0.0244 -0.0955,0.0473 -0.14211,0.0729 l 0.005,0.006 c 0.0463,-0.0256 0.0909,-0.0535 0.13746,-0.0786 z m -1.40147,0.84026 c -0.0743,0.0497 -0.1455,0.10313 -0.21756,0.15555 0.0719,-0.05 0.14747,-0.0952 0.22015,-0.14418 z m 20.28455,0.0579 c -0.1599,-9.4e-4 -0.32824,0.0266 -0.48421,0.1018 -0.1574,0.0759 -0.29735,0.19687 -0.38085,0.3669 -0.0851,0.17316 -0.098,0.38195 -0.01,0.56844 0.0906,0.19165 0.25258,0.30153 0.40256,0.37311 0.14647,0.0699 0.28249,0.10551 0.39067,0.14676 0.10323,0.0394 0.22119,0.0992 0.36897,0.14418 0.15074,0.0459 0.33338,0.0736 0.52348,0.016 0.10638,-0.0322 0.20203,-0.0891 0.28112,-0.16434 0.079,-0.0751 0.13648,-0.16453 0.17364,-0.26148 0.0749,-0.19558 0.0586,-0.40446 -0.0176,-0.58239 -0.0751,-0.17568 -0.20203,-0.3145 -0.34572,-0.41806 -0.14254,-0.10274 -0.29775,-0.16903 -0.45268,-0.21653 -0.13841,-0.0425 -0.29,-0.0729 -0.44907,-0.0744 z m -0.002,0.25011 c 0.12835,0.001 0.25542,0.0262 0.37724,0.0636 0.13627,0.0418 0.26788,0.0996 0.38137,0.18139 0.1135,0.0818 0.20829,0.18863 0.26149,0.31316 0.0533,0.12452 0.0635,0.26715 0.015,0.39377 -0.0243,0.0633 -0.0627,0.12253 -0.11317,0.17053 -0.0505,0.048 -0.11298,0.0847 -0.18138,0.10542 -0.12193,0.0369 -0.25571,0.0205 -0.37724,-0.0165 -0.12153,-0.037 -0.23517,-0.0934 -0.35347,-0.1385 -0.12382,-0.0472 -0.25297,-0.0822 -0.37207,-0.13901 -0.11909,-0.0568 -0.23012,-0.13984 -0.28422,-0.25424 -0.0521,-0.10964 -0.046,-0.24056 0.008,-0.34985 0.0537,-0.1093 0.15185,-0.19708 0.26614,-0.25218 0.1143,-0.0551 0.24423,-0.0785 0.37258,-0.0775 z m -2.15645,3.45095 v 5.2e-4 c -0.11421,-0.002 -0.23168,0.0165 -0.34365,0.0641 -0.13293,0.0564 -0.25312,0.15154 -0.33176,0.28732 -0.0801,0.13834 -0.10698,0.30704 -0.0512,0.47232 0.054,0.16028 0.16709,0.266 0.2775,0.33642 0.10741,0.0684 0.21007,0.10508 0.293,0.13849 0.0991,0.04 0.21797,0.0953 0.36897,0.12092 a 0.250025,0.250025 0 0 0 0.002,0 c 0.0743,0.0121 0.1567,0.0162 0.24391,0.004 0.0881,-0.0126 0.17892,-0.0418 0.262,-0.0977 0.13235,-0.0888 0.21604,-0.22186 0.24805,-0.36742 0.0316,-0.14368 0.0103,-0.28457 -0.0429,-0.40618 a 0.250025,0.250025 0 0 0 0,-5.2e-4 0.250025,0.250025 0 0 0 0,-5.1e-4 0.250025,0.250025 0 0 0 0,-5.2e-4 0.250025,0.250025 0 0 0 0,-5.2e-4 c -0.0535,-0.12079 -0.13518,-0.21822 -0.22841,-0.29455 -0.0927,-0.0758 -0.19476,-0.12809 -0.29301,-0.16795 -0.10586,-0.043 -0.22372,-0.0773 -0.35191,-0.0863 -0.007,-4.6e-4 -0.0235,-0.002 -0.0465,-0.002 -0.003,-5e-5 -0.003,0 -0.006,0 z m -22.02191,0.23978 c -0.0883,0.14303 -0.17181,0.28627 -0.25684,0.42943 l 0.005,0.002 c 0.0428,-0.072 0.0805,-0.14406 0.12403,-0.21601 0.26339,0.14802 0.51502,0.31865 0.76894,0.48421 0.21868,0.14259 0.44565,0.27361 0.64958,0.43667 0.20393,0.16305 0.38664,0.36263 0.48524,0.60461 0.0753,0.18597 0.0988,0.39226 0.0713,0.59118 -0.0275,0.19892 -0.10498,0.39014 -0.22014,0.55449 -0.23032,0.32868 -0.60686,0.54168 -1.00252,0.60668 -0.39565,0.065 -0.80748,-0.0109 -1.17202,-0.17828 -0.34128,-0.15673 -0.63929,-0.39465 -0.90124,-0.66456 -0.0368,0.0782 -0.0744,0.15642 -0.11111,0.23461 0.26228,0.2597 0.55908,0.49611 0.90899,0.6568 0.40341,0.18526 0.86247,0.27142 1.3162,0.19689 0.45684,-0.0751 0.89167,-0.31649 1.16634,-0.70848 0.13722,-0.19582 0.2303,-0.42407 0.26355,-0.66456 0.0334,-0.24128 0.005,-0.48949 -0.0879,-0.7183 -0.1212,-0.29744 -0.33592,-0.52775 -0.56069,-0.70745 -0.22357,-0.17877 -0.45865,-0.31144 -0.66973,-0.44907 -0.24975,-0.16284 -0.50261,-0.33677 -0.77618,-0.49093 z m 22.02242,0.0103 v 5.1e-4 c 0.012,0 0.0238,10e-4 0.0357,0.002 0.0952,0.007 0.18794,0.0322 0.27544,0.0677 0.0816,0.0331 0.15997,0.0751 0.22737,0.13022 0.0673,0.0551 0.12385,0.12397 0.15865,0.20257 0.0344,0.0786 0.047,0.16768 0.0284,0.25218 -0.0186,0.0845 -0.0692,0.16383 -0.14314,0.21343 -0.0469,0.0315 -0.10152,0.0504 -0.15762,0.0584 -0.0561,0.008 -0.11348,0.005 -0.16898,-0.004 -0.11111,-0.0188 -0.21461,-0.0641 -0.31832,-0.10594 -0.0864,-0.0348 -0.1747,-0.0681 -0.2527,-0.11782 -0.078,-0.0497 -0.14619,-0.11854 -0.17519,-0.20464 -0.0295,-0.0873 -0.015,-0.18648 0.032,-0.26768 0.047,-0.0812 0.12471,-0.1445 0.21291,-0.1819 0.0771,-0.0328 0.16176,-0.047 0.24546,-0.045 z m -23.35723,2.39933 c -0.0392,0.0796 -0.0757,0.15916 -0.11317,0.23875 0.0373,-0.0775 0.0807,-0.15501 0.11886,-0.23254 z m -1.72547,4.42557 c -0.0233,0.0802 -0.0445,0.16023 -0.0667,0.2403 0.30844,0.0394 0.60972,0.13256 0.91003,0.21807 0.35382,0.10073 0.7138,0.18659 1.04954,0.33693 0.33575,0.15034 0.65126,0.37314 0.84181,0.68782 0.13425,0.22176 0.20086,0.48235 0.19586,0.74155 -0.005,0.25921 -0.0811,0.51624 -0.21291,0.73949 -0.26358,0.44652 -0.74604,0.74508 -1.2578,0.82838 -0.51176,0.0833 -1.04637,-0.038 -1.4981,-0.29249 -0.23828,-0.13426 -0.45292,-0.30537 -0.64596,-0.4992 0.0165,-0.0983 0.0398,-0.19807 0.0574,-0.29662 l -0.008,-0.008 c -0.036,0.19969 -0.0656,0.39781 -0.0966,0.59635 0.17389,0.15939 0.35991,0.30744 0.56999,0.42581 0.49563,0.27927 1.08492,0.41436 1.66191,0.3204 0.58067,-0.0945 1.12529,-0.42772 1.43196,-0.94723 0.15307,-0.25933 0.24208,-0.5566 0.24804,-0.86145 0.006,-0.30523 -0.0723,-0.61231 -0.23254,-0.87695 -0.2268,-0.37455 -0.58692,-0.62084 -0.95343,-0.78496 -0.36418,-0.16307 -0.7368,-0.2511 -1.08365,-0.34985 -0.28539,-0.0813 -0.58735,-0.1727 -0.91054,-0.21808 z m -0.11007,0.39636 c -0.008,0.0291 -0.0164,0.0583 -0.0243,0.0873 l 0.003,5.1e-4 c 0.008,-0.0293 0.0137,-0.0585 0.0217,-0.0878 z m -0.65733,7.08742 c -0.0928,-9.4e-4 -0.1851,0.003 -0.2775,0.01 10e-4,0.16702 0.004,0.33367 0.008,0.4992 l 0.006,-5.2e-4 c -0.002,-0.0835 -0.008,-0.16521 -0.009,-0.24908 0.0902,-0.007 0.1807,-0.01 0.2713,-0.009 v 5.1e-4 c 0.0599,0.001 0.11982,0.003 0.17932,0.007 0.47593,0.0305 0.94354,0.14203 1.41438,0.22273 0.36931,0.0633 0.74335,0.1083 1.10123,0.22065 0.35789,0.11236 0.70501,0.30044 0.93172,0.5948 0.18412,0.23909 0.27812,0.53817 0.28112,0.83406 0.003,0.29588 -0.0833,0.588 -0.22996,0.84387 -0.29335,0.51175 -0.81267,0.86605 -1.36477,1.10019 -0.57573,0.24412 -1.21029,0.37522 -1.84227,0.32712 -0.11533,-0.009 -0.22946,-0.0305 -0.34364,-0.0517 0.016,0.0867 0.031,0.17408 0.0475,0.26045 0.0882,0.0159 0.17626,0.0332 0.27647,0.0408 0.67888,0.0517 1.35215,-0.0884 1.95905,-0.34571 0.58368,-0.24753 1.15226,-0.62816 1.48415,-1.20716 0.16655,-0.29052 0.26671,-0.62467 0.26355,-0.97049 -0.004,-0.34712 -0.11331,-0.69602 -0.33383,-0.98237 -0.27057,-0.35132 -0.66484,-0.55972 -1.05472,-0.68212 -0.38717,-0.12155 -0.77378,-0.16651 -1.13481,-0.22841 -0.46022,-0.0789 -0.9349,-0.19399 -1.43919,-0.22635 -0.0652,-0.004 -0.12908,-0.007 -0.19172,-0.008 l 0.002,0.002 a 0.250025,0.250025 0 0 0 -0.004,-0.002 z m 0.12558,4.34961 c -0.0156,-0.0861 -0.0271,-0.17521 -0.0419,-0.262 l -0.007,-0.001 c 0.015,0.0886 0.0324,0.17547 0.0486,0.26303 z m 4.11499,3.15846 c -0.0537,0.002 -0.11021,0.006 -0.16795,0.0114 -0.43745,0.0428 -0.8322,0.17536 -1.20716,0.25012 -0.486,0.0969 -1.01515,0.11606 -1.55494,0.24598 -0.0779,0.0187 -0.13848,0.0409 -0.18552,0.0548 l -0.015,0.005 c 0.0562,0.15794 0.11126,0.31723 0.17002,0.47129 0.003,-9e-4 0.004,-0.001 0.007,-0.002 -0.03,-0.0787 -0.0621,-0.15387 -0.0915,-0.23357 0.0579,-0.0171 0.11452,-0.0381 0.17312,-0.0522 0.50759,-0.12217 1.03461,-0.14233 1.54668,-0.24443 0.39559,-0.0789 0.78248,-0.20646 1.1839,-0.24546 0.0502,-0.005 0.1005,-0.008 0.1509,-0.0103 0.15128,-0.005 0.30301,0.005 0.4501,0.0367 0.19611,0.0428 0.384,0.12634 0.53382,0.25529 0.20888,0.17977 0.334,0.44231 0.3638,0.71261 0.0298,0.27031 -0.0318,0.54719 -0.15245,0.79427 -0.24124,0.49417 -0.69994,0.85581 -1.17202,1.156 -0.44335,0.28192 -0.9163,0.52752 -1.42472,0.66973 -0.0644,0.018 -0.13087,0.0289 -0.19637,0.0434 0.0434,0.0758 0.0863,0.15336 0.13074,0.22634 0.0424,-0.008 0.0811,-0.0151 0.13281,-0.0295 0.5416,-0.15149 1.03454,-0.40934 1.49035,-0.69918 0.48691,-0.30962 0.98854,-0.69302 1.26349,-1.25625 0.1382,-0.28308 0.21162,-0.60512 0.1757,-0.93121 -0.0362,-0.32854 -0.18639,-0.64933 -0.44907,-0.8754 -0.18767,-0.16152 -0.41248,-0.26043 -0.64234,-0.31057 -0.17162,-0.0375 -0.34565,-0.0488 -0.51366,-0.0429 z m 39.50922,1.42162 -0.001,5.2e-4 c -0.005,0.0128 -0.0232,0.0435 -0.0258,0.0486 a 0.250025,0.250025 0 0 0 -0.014,0.031 c -0.0553,0.1595 -0.0667,0.31066 -0.076,0.44132 -0.007,0.0996 -0.0167,0.21818 0.006,0.34985 0.0232,0.13518 0.0818,0.28199 0.20515,0.39636 0.10293,0.0954 0.2301,0.1476 0.35967,0.16588 0.12873,0.0183 0.2527,0.003 0.36691,-0.0372 a 0.250025,0.250025 0 0 0 0.002,-0.002 c 0.22722,-0.0792 0.39122,-0.24152 0.50385,-0.41238 0.0886,-0.13449 0.15097,-0.28972 0.17673,-0.45733 -0.0762,-0.047 -0.16061,-0.0826 -0.24081,-0.12403 10e-4,0.0181 0.004,0.0362 0.003,0.0543 -0.0147,0.13822 -0.0689,0.27226 -0.14728,0.3912 -0.0902,0.13683 -0.21792,0.25777 -0.37827,0.31367 -0.0802,0.0279 -0.16734,0.0388 -0.25114,0.0269 -0.0838,-0.0118 -0.16386,-0.0468 -0.22376,-0.10232 -0.0725,-0.0672 -0.11238,-0.16028 -0.12868,-0.25528 -0.0162,-0.0949 -0.0111,-0.19247 -0.004,-0.28887 0.009,-0.12713 0.0208,-0.25554 0.063,-0.37724 0.0137,-0.0396 0.0362,-0.0764 0.0579,-0.11317 -0.0846,-0.0162 -0.16613,-0.0378 -0.25321,-0.0496 z m 0.39274,0.077 c 0.0426,0.01 0.0837,0.0224 0.12557,0.0336 l 0.006,-0.008 c -0.0422,-0.0114 -0.0882,-0.016 -0.13126,-0.0258 z m 0.62011,0.19482 v 0.008 c 0.0303,0.0128 0.0611,0.0247 0.091,0.0382 -0.0313,-0.0142 -0.0591,-0.0331 -0.091,-0.0465 z m -42.23669,1.99678 -0.005,0.001 c 0.0431,0.0762 0.0869,0.15019 0.13022,0.22583 -0.0429,-0.0731 -0.0833,-0.1522 -0.12557,-0.22686 z m 44.20453,0.45423 c -0.0291,6.8e-4 -0.0575,0.004 -0.0879,0.01 -0.12194,0.023 -0.21084,0.0817 -0.27543,0.12713 -0.0646,0.0454 -0.10776,0.0781 -0.13488,0.092 -0.0399,0.0205 -0.12152,0.0382 -0.23409,0.0739 -0.0551,0.0176 -0.1204,0.0407 -0.18759,0.0822 -0.0666,0.0413 -0.13211,0.10015 -0.18138,0.18345 -0.0448,0.0756 -0.0663,0.15773 -0.0687,0.23823 -0.002,0.0777 0.0126,0.15661 0.045,0.23048 0.0605,0.14011 0.16592,0.2409 0.28525,0.30696 0.11774,0.0652 0.24325,0.0919 0.36122,0.0982 0.11863,0.007 0.2272,-0.009 0.32246,-0.03 0.14284,-0.0306 0.29337,-0.0802 0.4315,-0.17363 0.0128,-0.009 0.0217,-0.0192 0.0336,-0.0284 -0.004,-0.11236 -0.0183,-0.21903 -0.0279,-0.32815 -0.0399,0.0568 -0.0863,0.1093 -0.14469,0.14883 -0.10129,0.0685 -0.22103,0.11012 -0.34365,0.13642 -0.084,0.0178 -0.17066,0.0298 -0.25786,0.0248 -0.0872,-0.005 -0.1754,-0.0254 -0.2527,-0.0682 -0.0774,-0.0428 -0.14345,-0.10879 -0.17725,-0.18759 -0.0173,-0.0394 -0.0253,-0.0818 -0.0243,-0.12351 10e-4,-0.0417 0.0121,-0.0828 0.0331,-0.11834 0.0236,-0.0399 0.059,-0.0722 0.0992,-0.0971 0.0402,-0.0248 0.0855,-0.0417 0.13126,-0.0563 0.0916,-0.0291 0.18825,-0.0465 0.27285,-0.0899 0.0591,-0.0303 0.11043,-0.0727 0.16433,-0.11059 0.0539,-0.0379 0.1122,-0.0724 0.1788,-0.0847 0.0154,-0.003 0.0312,-0.005 0.047,-0.005 0.0476,-0.001 0.0962,0.009 0.14056,0.0279 0.0207,0.009 0.0353,0.0268 0.0522,0.0419 -0.0199,-0.0975 -0.0344,-0.19827 -0.0605,-0.29197 -0.0464,-0.0107 -0.091,-0.029 -0.13953,-0.0279 z m -38.94749,0.32608 c -0.30346,0.0101 -0.58302,0.1262 -0.81597,0.28887 -0.23123,0.16148 -0.41524,0.36541 -0.57258,0.57258 -0.3143,0.41385 -0.53861,0.84361 -0.85524,1.13636 -0.1406,0.12999 -0.30724,0.24767 -0.48266,0.37156 l -0.0548,0.0387 c 0.0668,0.0584 0.13368,0.10967 0.20051,0.16485 0.1746,-0.12331 0.34961,-0.2462 0.50643,-0.39119 0.35962,-0.33249 0.58937,-0.77921 0.88573,-1.16944 0.14818,-0.19511 0.31554,-0.37867 0.51625,-0.51883 0.2007,-0.14016 0.43766,-0.23488 0.68213,-0.24288 0.23477,-0.007 0.46932,0.0679 0.66197,0.20257 0.19265,0.13472 0.34347,0.32748 0.43667,0.54364 0.0933,0.21616 0.12975,0.45531 0.11575,0.6904 -0.014,0.23509 -0.078,0.46608 -0.17828,0.67903 -0.20063,0.42588 -0.54113,0.7729 -0.92242,1.04799 -0.20938,0.15107 -0.43256,0.28029 -0.65991,0.40256 0.0903,0.0445 0.17981,0.0909 0.27078,0.13333 0.18122,-0.10114 0.3618,-0.20756 0.53537,-0.3328 0.40492,-0.29214 0.77722,-0.66746 1.00201,-1.14463 0.11254,-0.23892 0.18494,-0.50098 0.20102,-0.77153 0.0161,-0.27087 -0.024,-0.54659 -0.13436,-0.80254 -0.11063,-0.25657 -0.28926,-0.48682 -0.52348,-0.6506 -0.235,-0.16433 -0.51979,-0.25704 -0.81287,-0.24805 a 0.250025,0.250025 0 0 0 -0.002,0 z m 39.17539,0.13126 c 0.017,0.0995 0.0316,0.20046 0.0429,0.30334 -0.0114,-0.10293 -0.0258,-0.20381 -0.0429,-0.30334 z m -34.13797,1.90789 c -0.0382,8.7e-4 -0.0797,0.003 -0.12299,0.01 -0.16482,0.0227 -0.32618,0.0832 -0.46509,0.18345 -0.13893,0.10037 -0.24224,0.22921 -0.31988,0.36536 -0.0775,0.13583 -0.12859,0.27788 -0.16639,0.41444 -0.0756,0.27285 -0.10409,0.52846 -0.17157,0.74207 -0.0747,0.23636 -0.21343,0.47838 -0.3266,0.76533 -0.0566,0.1435 -0.10745,0.29923 -0.13074,0.46716 a 0.250025,0.250025 0 0 0 0,0.002 c -0.006,0.0457 -0.004,0.0678 -0.005,0.0868 0.0812,0.0142 0.16542,0.0251 0.24857,0.0372 0.002,-0.0307 10e-4,-0.0616 0.005,-0.092 0.0195,-0.14068 0.0621,-0.27723 0.11421,-0.40927 0.10415,-0.26409 0.24719,-0.51267 0.33279,-0.78342 0.0773,-0.24459 0.10617,-0.50206 0.17467,-0.74931 0.0342,-0.12362 0.0786,-0.24524 0.14211,-0.35656 0.0635,-0.11133 0.14644,-0.21242 0.25012,-0.28732 0.10336,-0.0746 0.22577,-0.12161 0.35191,-0.13901 0.0314,-0.005 0.0629,-0.007 0.0946,-0.008 h 5.2e-4 c 0.0952,-0.002 0.19101,0.0119 0.28215,0.0398 0.24362,0.0746 0.45084,0.24894 0.58963,0.46353 0.1388,0.2146 0.21239,0.46724 0.23719,0.72192 0.0249,0.25468 0.003,0.51226 -0.0382,0.76481 -0.0515,0.31823 -0.13364,0.63404 -0.27905,0.92139 -0.022,0.0434 -0.0561,0.0795 -0.0811,0.12144 -0.096,-0.004 -0.18543,-0.0137 -0.28009,-0.0186 l -0.004,0.007 c 0.18948,0.01 0.37957,0.0193 0.57464,0.0243 0.006,-0.011 0.007,-0.008 0.0134,-0.0207 0.1616,-0.31934 0.24829,-0.66037 0.30231,-0.99425 0.0429,-0.26494 0.0671,-0.54313 0.0393,-0.82838 -0.0279,-0.28628 -0.10993,-0.57765 -0.27544,-0.83354 -0.16688,-0.25803 -0.41665,-0.47197 -0.72657,-0.56689 -0.11607,-0.0356 -0.23786,-0.0533 -0.36122,-0.0506 z m -7.60419,0.54519 c 0.0614,0.0504 0.12257,0.10504 0.18397,0.15141 0.004,-0.003 0.007,-0.006 0.0109,-0.009 -0.065,-0.0498 -0.12985,-0.0899 -0.19482,-0.14263 z m 12.18014,0.27905 c -0.0748,0.003 -0.1472,0.0186 -0.21653,0.0429 -0.18919,0.0667 -0.34912,0.2025 -0.45888,0.38293 -0.11024,0.18125 -0.16521,0.39724 -0.15245,0.61701 0.0143,0.24436 0.10913,0.43877 0.18138,0.59377 0.0704,0.15139 0.12352,0.28143 0.12713,0.40617 0.002,0.0672 -0.0142,0.15806 -0.031,0.27182 l -0.008,0.0563 c 0.0845,-0.007 0.17068,-0.0149 0.2558,-0.0222 0.0156,-0.10448 0.036,-0.20902 0.0331,-0.31316 -0.005,-0.18608 -0.0781,-0.35017 -0.15038,-0.5054 -0.0724,-0.15523 -0.14784,-0.3166 -0.15864,-0.50178 -0.01,-0.1643 0.0354,-0.33632 0.11782,-0.4718 0.0824,-0.13549 0.20085,-0.23384 0.32763,-0.27854 0.0476,-0.0167 0.0963,-0.0264 0.14469,-0.0284 0.0807,-0.004 0.16063,0.0118 0.23513,0.045 0.11911,0.0532 0.22341,0.15065 0.30231,0.2744 0.1578,0.2475 0.2104,0.59265 0.1788,0.92449 -0.0257,0.26943 -0.11031,0.52704 -0.21291,0.77256 0.0915,-0.01 0.18178,-0.0185 0.27544,-0.0294 0.0865,-0.22382 0.16195,-0.46112 0.18655,-0.71934 0.0356,-0.37419 -0.0156,-0.7665 -0.21653,-1.08158 -0.1006,-0.15777 -0.239,-0.2921 -0.41237,-0.36949 -0.10863,-0.0484 -0.22671,-0.072 -0.34727,-0.0661 z m 0.51521,2.26601 c -0.0955,0.0106 -0.18801,0.0196 -0.28319,0.03 l -5.1e-4,5.1e-4 c 0.0941,-0.01 0.18946,-0.0205 0.2837,-0.0305 z m -6.49159,-0.008 c 0.0631,0.009 0.12508,0.0194 0.1881,0.0284 v -0.005 c -0.0618,-0.009 -0.12694,-0.0143 -0.1881,-0.0238 z m 5.92677,0.0672 c -0.0233,0.002 -0.0471,0.005 -0.0703,0.007 0.0236,-0.002 0.0465,-0.004 0.0703,-0.006 5e-5,-3e-4 -5e-5,-7.4e-4 0,-0.001 z" /></g><g
         id="g2249"
         transform="translate(121.70835)"><path
           style="opacity:1;mix-blend-mode:normal;fill:#ffffff;fill-opacity:0.3;stroke:none;stroke-width:2.2;stroke-linecap:round;stroke-linejoin:round;stroke-dasharray:none;stroke-opacity:1"
           d="m 368.58407,179.26657 c 0.60205,1.3934 0.10196,2.56139 -0.88759,2.90142 0.52209,-0.60119 0.20258,-1.35977 0.34158,-2.01612 0.10426,-0.49235 0.55195,-0.59455 0.54601,-0.8853 z"
           id="path2230"
           sodipodi:nodetypes="ccsc" /><path
           style="opacity:1;fill:#ffffff;fill-opacity:0.25;stroke:none;stroke-width:2.2;stroke-linecap:round;stroke-linejoin:round;stroke-dasharray:none;stroke-opacity:1"
           d="m 366.94158,175.0358 c -0.97931,0.48965 -1.37863,1.34524 -1.99645,1.71639 -0.71477,0.42939 -1.4724,0.34762 -2.34698,0.86557 0,0 1.07774,0.33784 1.41368,0.91831 0.33595,0.58047 0.69337,1.18036 0.78203,1.59411 0.74248,-0.5212 0.63924,-0.68174 1.2142,-0.94407 0.57496,-0.26233 1.69587,-0.22572 1.69587,-0.22572 -0.29806,-0.61739 -0.80074,-0.95294 -1.02735,-1.62685 -0.2266,-0.6739 -0.20337,-1.68035 0.265,-2.29774 z"
           id="path2231"
           sodipodi:nodetypes="csczczczc" /><path
           style="opacity:0.929119;fill:#ffffff;fill-opacity:0.35;stroke:none;stroke-width:0.2;stroke-linecap:round;stroke-linejoin:round;stroke-dasharray:none;stroke-opacity:1"
           d="m 387.23728,204.86386 c 0.51775,-1.07533 2.17056,-4.14198 2.05108,-5.39653 0.0797,1.13507 -0.0878,1.99904 -0.25669,2.34869 -0.16882,0.34965 -1.05759,1.93269 -1.79439,3.04784 z"
           id="path2232"
           sodipodi:nodetypes="cczc" /><path
           style="opacity:1;fill:#ffffff;fill-opacity:0.35;stroke:none;stroke-width:2.2;stroke-linecap:round;stroke-linejoin:round;stroke-dasharray:none;stroke-opacity:1"
           d="m 361.46956,185.7615 c -0.23319,0.75362 0.73155,1.30762 0.73155,1.30762 0.20123,-0.2149 0.81679,-0.37733 0.81679,-0.37733 -0.65192,-0.0726 -1.42861,-0.53716 -1.21202,-1.8877 z"
           id="path2233"
           sodipodi:nodetypes="ccccc" /><path
           style="opacity:1;fill:#ffffff;fill-opacity:0.3;stroke:none;stroke-width:2.2;stroke-linecap:round;stroke-linejoin:round;stroke-dasharray:none;stroke-opacity:1"
           d="m 368.246,174.50186 c 0.22371,-0.82344 2.1123,-3.3247 2.58645,-3.80664 -0.7308,0.53912 -1.13829,0.69624 -1.59714,1.28553 -0.45886,0.58929 -0.87252,1.83081 -0.98931,2.52111 z"
           id="path2234"
           sodipodi:nodetypes="cczc" /><path
           style="opacity:1;fill:#ffffff;fill-opacity:0.3;stroke:none;stroke-width:0.2;stroke-linecap:round;stroke-linejoin:round;stroke-dasharray:none;stroke-opacity:1"
           d="m 365.91789,164.40225 c 4.72535,0.64745 5.73509,2.44957 5.33236,5.63142 2.46108,-2.90759 -0.28905,-5.63255 -5.33236,-5.63142 z"
           id="path2235"
           sodipodi:nodetypes="ccc" /><path
           style="opacity:1;fill:#ffffff;fill-opacity:0.3;stroke:none;stroke-width:2.2;stroke-linecap:round;stroke-linejoin:round;stroke-dasharray:none;stroke-opacity:1"
           d="m 371.78765,168.72411 c 0.12977,-0.68173 -0.11259,-1.70437 -0.35371,-2.14057 0.30059,0.27686 0.49165,0.7924 0.53062,1.08967 0.039,0.29727 0.0161,0.58508 -0.17691,1.0509 z"
           id="path2236"
           sodipodi:nodetypes="cczc" /><path
           style="opacity:1;fill:#ffffff;fill-opacity:0.3;stroke:none;stroke-width:2.2;stroke-linecap:round;stroke-linejoin:round;stroke-dasharray:none;stroke-opacity:1"
           d="m 349.35321,170.91196 c -5.0267,7.18516 -5.41466,13.72629 -3.45472,21.60477 0.64829,2.60595 1.14891,4.9079 2.53919,6.9113 -1.88161,-1.33172 -2.9155,-2.7792 -3.88813,-5.15351 -3.63747,-8.87949 0.1324,-19.91645 4.0842,-24.11722 2.9221,-3.10621 8.36294,-5.26078 14.70795,-5.67422 -3.76139,0.62416 -10.63724,1.63861 -13.98849,6.42888 z"
           id="path2237"
           sodipodi:nodetypes="sscsscs" /><path
           style="opacity:1;fill:#ffffff;fill-opacity:0.3;stroke:none;stroke-width:0.2;stroke-linecap:round;stroke-linejoin:round;stroke-dasharray:none;stroke-opacity:1"
           d="m 346.21678,196.42826 c -1.38117,-3.22846 -1.94013,-5.83914 -2.39241,-10.61144 -0.78133,4.34988 0.6325,8.33777 2.39241,10.61144 z"
           id="path2238"
           sodipodi:nodetypes="ccc" /><path
           style="opacity:1;fill:#ffffff;fill-opacity:0.3;stroke:none;stroke-width:0.2;stroke-linecap:round;stroke-linejoin:round;stroke-dasharray:none;stroke-opacity:1"
           d="m 347.27088,172.7041 c 2.34997,-2.95925 3.19749,-3.70718 5.96397,-5.50828 -3.2937,1.81538 -3.73589,1.90841 -5.96397,5.50828 z"
           id="path2239"
           sodipodi:nodetypes="ccc" /><path
           id="path2240"
           style="opacity:0.5;fill:#333333;fill-opacity:1;stroke:none;stroke-width:0.2;stroke-linecap:round;stroke-linejoin:round;stroke-dasharray:none;stroke-opacity:1"
           d="m 386.50305,196.51152 c -0.72828,-0.002 -1.36153,0.17924 -1.43764,0.23874 v 0.42685 c 2.76693,-0.67822 3.97899,1.39821 2.70113,5.2803 l 0.003,0.002 c 2.39851,-5.04611 0.33616,-5.94207 -1.26608,-5.94744 z" /><path
           id="path2241"
           style="opacity:0.65;fill:#333333;fill-opacity:1;stroke:none;stroke-width:0.2;stroke-linecap:round;stroke-linejoin:round;stroke-dasharray:none;stroke-opacity:1"
           d="m 386.59607,196.96937 c -0.29416,0.004 -0.58011,0.0488 -0.82372,0.0946 1.56083,-0.1196 2.46491,0.8241 2.49442,2.58227 0.32059,-2.26229 -0.70445,-2.6895 -1.6707,-2.67684 z" /><path
           id="path2242"
           style="opacity:1;fill:#ffffff;fill-opacity:0.25;stroke:none;stroke-width:0.2;stroke-linecap:round;stroke-linejoin:round;stroke-dasharray:none;stroke-opacity:1"
           d="m 385.50932,195.46042 c -0.15325,8.8e-4 -0.30201,0.005 -0.44391,0.0103 v 0.71882 c 0.3429,-0.20152 0.78163,-0.39974 1.92547,-0.61289 -0.4457,-0.0925 -0.98353,-0.11913 -1.48156,-0.11627 z" /><path
           id="path2243"
           style="opacity:0.5;fill:#333333;fill-opacity:1;stroke:none;stroke-width:2.2;stroke-linecap:round;stroke-linejoin:round;stroke-dasharray:none;stroke-opacity:1"
           d="m 347.80309,200.50404 c 0.28836,0.25561 0.57798,0.47717 0.8661,0.65784 3.76607,2.36158 7.8481,2.90098 15.07866,1.67483 -0.0445,-0.0649 -0.0832,-0.12833 -0.10852,-0.18913 v -0.6041 c -0.0602,-0.0106 -0.11893,-0.0267 -0.1788,-0.0388 -4.00678,0.99863 -10.10903,1.40379 -15.65744,-1.50068 z" /><path
           id="path2244"
           style="opacity:0.65;fill:#333333;fill-opacity:1;stroke:none;stroke-width:2.2;stroke-linecap:round;stroke-linejoin:round;stroke-dasharray:none;stroke-opacity:1"
           d="m 363.63933,202.44811 c -2.79901,0.60509 -6.90709,1.1044 -11.7693,0.23203 3.01987,1.00139 6.61261,1.04944 11.87782,0.15657 -0.0445,-0.0649 -0.0832,-0.12833 -0.10852,-0.18913 z" /><path
           id="path2245"
           style="opacity:0.5;fill:#333333;fill-opacity:1;stroke:none;stroke-width:0.2;stroke-linecap:round;stroke-linejoin:round;stroke-dasharray:none;stroke-opacity:1"
           d="m 364.68344,165.96365 c -5.00906,0.35397 -10.29599,1.55682 -13.63455,5.52976 -2.13241,2.5376 -3.94763,12.12652 -3.51969,16.34887 0.19874,1.96088 0.73564,9.38186 7.67861,11.00811 -8.98538,-3.85422 -7.08722,-18.3414 -3.91398,-26.14362 2.1516,-5.29023 20.85918,-8.80763 17.73432,-2.80345 -0.30355,0.58324 -0.73075,1.19945 -1.20303,1.81178 4.51722,-4.3264 0.62586,-5.87301 -3.14168,-5.75145 z"
           sodipodi:nodetypes="ssscsscs" /><path
           id="path2246"
           style="opacity:0.65;fill:#333333;fill-opacity:1;stroke:none;stroke-width:0.2;stroke-linecap:round;stroke-linejoin:round;stroke-dasharray:none;stroke-opacity:1"
           d="m 364.2734,166.59242 c -3.31682,-0.0546 -9.9011,1.78624 -12.50828,4.77541 -1.57264,1.80306 -2.59792,6.08818 -2.8112,10.3694 0.43705,-3.31713 1.31907,-6.52046 2.33991,-9.03046 1.35367,-3.32832 9.25804,-5.95276 14.15831,-5.94796 l 0.0212,-0.0248 c -0.31936,-0.0873 -0.7261,-0.1338 -1.19993,-0.14159 z" /><path
           id="path2247"
           style="opacity:0.65;fill:#333333;fill-opacity:1;stroke:none;stroke-width:0.2;stroke-linecap:round;stroke-linejoin:round;stroke-dasharray:none;stroke-opacity:1"
           d="m 366.86549,166.7862 c -0.14261,8e-4 -0.29235,0.006 -0.44855,0.015 2.31041,0.19638 3.63435,1.13626 2.61121,3.10213 -0.0787,0.15122 -0.18664,0.30958 -0.28009,0.46458 1.04539,-0.8098 1.85249,-3.60251 -1.88257,-3.5817 z"
           sodipodi:nodetypes="scscss" /><path
           id="path2248"
           style="opacity:1;fill:#333333;fill-opacity:0.827451;stroke:none;stroke-width:0.2;stroke-linecap:butt;stroke-linejoin:round;stroke-dasharray:none;stroke-opacity:1"
           d="m 349.01645,190.12431 c 0.036,4.29887 2.32269,6.36067 3.47886,6.96392 -1.88593,-1.75026 -2.97263,-4.20535 -3.47886,-6.96392 z" /><path
           id="path2249"
           style="opacity:1;fill:#ffffff;fill-opacity:0.3;stroke:none;stroke-width:0.2;stroke-linecap:round;stroke-linejoin:round;stroke-dasharray:none;stroke-opacity:1"
           d="m 245.9425,135.01422 c 2.57205,2.1153 4.57226,2.89244 7.60638,2.37831 -0.006,-0.008 -0.0144,-0.0164 -0.0201,-0.0242 l -0.77598,0.10768 c -0.6539,-0.12497 -1.29069,-0.35884 -1.87254,-0.63795 -1.5858,-0.18598 -2.8261,-0.78729 -4.93778,-1.82387 z"
           transform="rotate(-5.2925076,987.07885,-982.25966)" /></g><path
         id="path2254"
         style="stroke-width:0.0999999;stroke-linecap:round;stroke-linejoin:round"
         d="m 483.63254,186.46472 c -0.0424,0.10359 -0.0754,0.1998 -0.14933,0.15709 -0.0744,-0.043 -0.0975,-0.14521 -0.0551,-0.2488 0.0424,-0.10358 0.14087,-0.15002 0.21523,-0.10707 0.0743,0.0429 0.0316,0.0952 -0.0108,0.19878 z"
         sodipodi:nodetypes="sssss" /><g
         id="g197"><path
           style="fill:#000000;fill-opacity:0.2;stroke:#000000;stroke-width:0.199999;stroke-linecap:square;stroke-linejoin:round;stroke-dasharray:none;stroke-opacity:1"
           d="m 492.1696,183.28827 12.63715,-2.96574 v 1.15052 l -2.83046,1.35684 -0.90337,4.69671 -4.64036,1.08901 -1.15981,-4.22775 -3.10315,0.051 z"
           id="path2205"
           sodipodi:nodetypes="ccccccccc" /><ellipse
           style="fill:#000000;fill-opacity:0.5;stroke:#000000;stroke-width:0.2011;stroke-linecap:square;stroke-linejoin:round;stroke-dasharray:none;stroke-opacity:1"
           id="ellipse2259"
           cx="474.37045"
           cy="319.49023"
           rx="0.3138935"
           ry="0.27884156"
           transform="matrix(0.96207394,-0.27278881,0.12808591,0.99176308,0,0)" /><ellipse
           style="fill:#000000;fill-opacity:0.5;stroke:#000000;stroke-width:0.2011;stroke-linecap:square;stroke-linejoin:round;stroke-dasharray:none;stroke-opacity:1"
           id="ellipse2260"
           cx="476.00827"
           cy="319.54272"
           rx="0.3138935"
           ry="0.27884156"
           transform="matrix(0.96207394,-0.27278881,0.12808591,0.99176308,0,0)" /><ellipse
           style="fill:#000000;fill-opacity:0.5;stroke:#000000;stroke-width:0.2011;stroke-linecap:square;stroke-linejoin:round;stroke-dasharray:none;stroke-opacity:1"
           id="ellipse2261"
           cx="477.57849"
           cy="319.62335"
           rx="0.3138935"
           ry="0.27884156"
           transform="matrix(0.96207394,-0.27278881,0.12808591,0.99176308,0,0)" /></g><path
         id="path2261"
         style="fill:#000000;fill-opacity:0.3;stroke:none;stroke-width:0.2;stroke-linecap:butt;stroke-linejoin:round;stroke-dasharray:none;filter:url(#filter2138)"
         d="m 476.40618,198.60394 v 0.15193 c 0.33395,0.80146 2.40011,2.00984 4.47052,2.2102 l 0.76275,-0.1788 c 0.60399,0.68915 2.10926,1.50384 3.7083,1.78542 v -0.52917 c -1.59904,-0.28158 -3.10431,-1.09627 -3.7083,-1.78542 l -0.76275,0.1788 c -1.57431,-0.15235 -3.14407,-0.88744 -3.95376,-1.58336 -0.17902,-0.0766 -0.3463,-0.16467 -0.51676,-0.2496 z m 8.94157,4.04368 v 0.20515 c 0.038,-0.006 0.0703,-0.01 0.10852,-0.016 -0.0445,-0.0649 -0.0832,-0.12833 -0.10852,-0.18913 z"
         sodipodi:nodetypes="cccccccccccccsc" /><g
         id="g196"><path
           style="opacity:1;fill:#000000;fill-opacity:0.2;stroke:#000000;stroke-width:0.2;stroke-linecap:round;stroke-linejoin:round;stroke-dasharray:none;stroke-opacity:1"
           d="m 503.46573,197.02827 v -7.25419 l 1.53179,-0.36109 -4.13626,8.2841 z"
           id="path2220"
           sodipodi:nodetypes="ccccc" /><path
           id="path2221"
           style="opacity:1;fill:#000000;fill-opacity:0.2;stroke:none;stroke-width:0.2;stroke-linecap:round;stroke-linejoin:round;stroke-dasharray:none;stroke-opacity:1"
           d="m 497.54944,191.1614 -4.90525,1.15038 c -1.25938,3.93491 1.60371,4.4873 0.0256,8.30418 l 4.87956,-1.1443 z" /><path
           style="opacity:1;fill:#000000;fill-opacity:0.3;stroke:#000000;stroke-width:0.2;stroke-linecap:round;stroke-linejoin:round;stroke-dasharray:none;stroke-opacity:1"
           d="m 498.19902,191.0092 v 2.7104 c 0,0 1.51497,-0.9472 1.72214,-1.53497 0.17522,-0.49705 0.23961,-1.60801 0.23961,-1.60801"
           id="path2223"
           sodipodi:nodetypes="ccsc" /><path
           style="opacity:1;fill:#000000;fill-opacity:0.2;stroke:#000000;stroke-width:0.2;stroke-linecap:round;stroke-linejoin:round;stroke-dasharray:none;stroke-opacity:1;marker-end:url(#Triangle)"
           d="m 500.12221,190.58249 -1.4844,0.32995"
           id="path2225"
           sodipodi:nodetypes="cc" /><path
           style="opacity:1;fill:none;fill-opacity:0.2;stroke:#000000;stroke-width:0.2;stroke-linecap:round;stroke-linejoin:round;stroke-dasharray:0.8, 0.6;stroke-dashoffset:0;stroke-opacity:1"
           d="m 492.99931,191.33859 c -2.23499,5.16166 1.83589,5.18826 -0.74498,10.13708"
           id="path2227"
           sodipodi:nodetypes="cc" /><path
           id="path2228"
           style="opacity:1;fill:none;fill-opacity:0.2;stroke:#000000;stroke-width:0.2;stroke-linecap:round;stroke-linejoin:round;stroke-dasharray:none;stroke-opacity:1"
           d="m 492.66984,200.61596 4.87955,-1.1443 v -8.31026 l -4.90525,1.15038"
           sodipodi:nodetypes="cccc" /><path
           style="opacity:1;fill:none;fill-opacity:0.2;stroke:#000000;stroke-width:0.2;stroke-linecap:round;stroke-linejoin:round;stroke-dasharray:0.8, 0.6, 0.2, 0.6;stroke-dashoffset:0;stroke-opacity:1"
           d="m 491.54662,195.27969 13.53164,-3.17338"
           id="path2229" /><path
           id="path81"
           style="stroke-linejoin:round"
           d="m 497.49418,198.18738 -4.39818,0.97927 c -0.0141,0.0872 -0.0305,0.17643 -0.0501,0.26768 -0.0112,0.0523 -0.0225,0.10396 -0.0356,0.15761 l 0.0227,0.10129 4.51653,-1.00562 c 0.019,-0.17314 -0.0179,-0.33338 -0.0554,-0.50023 z"
           sodipodi:nodetypes="ccscccc" /><path
           style="opacity:1;fill:#c4ff8d;fill-opacity:1;stroke:#000000;stroke-width:0.2;stroke-linecap:round;stroke-linejoin:round;stroke-dasharray:none;stroke-dashoffset:0;marker-end:url(#marker83)"
           d="m 498.01747,198.32548 1.93592,-0.44642"
           id="path82"
           sodipodi:nodetypes="cc" /><path
           style="opacity:1;fill:#000000;fill-opacity:0.2;stroke:#000000;stroke-width:0.2;stroke-linecap:round;stroke-linejoin:round;stroke-dasharray:none;stroke-opacity:1;marker-end:url(#Triangle)"
           d="m 499.94703,191.99613 -1.30922,0.30659"
           id="path85"
           sodipodi:nodetypes="cc" /></g><path
         id="path2250"
         style="fill:none;fill-opacity:1;stroke:#000000;stroke-width:0.2;stroke-linejoin:round;stroke-dasharray:none"
         d="m 487.5595,163.9482 c -5.37118,0.0169 -15.0365,1.3026 -19.02881,7.62848 -8.16352,12.93518 -2.93289,26.58802 1.84691,29.58527 3.76608,2.36158 7.8481,2.90098 15.07867,1.67483 -0.0445,-0.0649 -0.0832,-0.12833 -0.10852,-0.18913 v -0.6041 c -1.59904,-0.28158 -3.10431,-1.09627 -3.7083,-1.78542 l -0.76275,0.1788 c -1.57433,-0.15235 -3.14407,-0.88742 -3.95376,-1.58336 -8.99328,-3.84976 -7.09475,-18.3425 -3.92069,-26.14673 2.1516,-5.29024 20.85918,-8.80764 17.73432,-2.80345 -0.64316,1.23578 -1.81855,2.61923 -2.8758,3.80132 -2.41631,2.7016 -3.96832,2.53876 -5.05705,4.00699 -1.04272,1.40619 -0.48442,3.64792 0.11782,5.32939 0.60225,1.68148 -1.21304,3.65109 1.15549,4.43901 2.22043,0.73866 2.33657,-2.38229 3.76359,-3.09387 1.42703,-0.71158 2.49214,-1.93115 2.95899,-3.44837 0.65389,-2.12504 -1.40852,-4.00196 -0.2713,-6.2544 1.51787,-3.00636 4.39253,-5.17215 3.94756,-7.21868 -0.35111,-1.61486 -2.35899,-3.40638 -5.90248,-3.50418 -0.31696,-0.009 -0.65581,-0.0135 -1.01389,-0.0124 z m 20.14554,31.08803 c -0.29802,-10e-4 -0.60901,0.0242 -0.93121,0.0791 v 2.06189 c 3.71447,-0.91048 4.63389,3.13779 0.47698,9.864 6.50143,-5.84648 4.92453,-11.98405 0.45423,-12.00495 z" /><g
         id="g195"><path
           style="opacity:1;fill:#773b3b;fill-opacity:1;stroke:none;stroke-width:0.2;stroke-linecap:butt;stroke-linejoin:round;stroke-dasharray:none;stroke-dashoffset:0;stroke-opacity:1"
           d="m 485.73406,166.96537 2.59668,-0.60217 0.59867,0.29588 -1.81663,0.42152 z"
           id="path2256" /><path
           style="opacity:1;fill:#542a2a;fill-opacity:1;stroke:none;stroke-width:0.4;stroke-linecap:butt;stroke-linejoin:round;stroke-dasharray:none;stroke-dashoffset:0;stroke-opacity:1"
           d="m 488.92941,166.65908 v 0.61537 l -0.48586,-0.11844 -1.33114,-0.0754"
           id="path2257"
           sodipodi:nodetypes="cccc" /><path
           style="opacity:1;fill:#482a2a;fill-opacity:1;stroke:#000000;stroke-width:0.2;stroke-linecap:butt;stroke-linejoin:round;stroke-dasharray:none;stroke-dashoffset:0;stroke-opacity:1"
           d="m 486.30937,167.26699 2.62004,-0.60791"
           id="path2259" /><path
           style="opacity:1;fill:none;fill-opacity:1;stroke:#000000;stroke-width:0.2;stroke-linecap:butt;stroke-linejoin:round;stroke-dasharray:none;stroke-dashoffset:0;stroke-opacity:1"
           d="m 488.92978,167.31546 -8e-5,-0.65619 -0.59867,-0.29624 -2.59697,0.60234"
           id="path2258" /></g></g></g></svg>
